<svg width="512" height="512" viewBox="0 0 512 512" fill="none" xmlns="http://www.w3.org/2000/svg">
<path d="M428.789 12.5488C433.566 9.3856 437.842 6.86237 442.818 4C455.648 55.6834 459.07 105.472 439.211 156.354C431.38 176.419 421.737 193.022 413.633 211.896C425.226 233.319 435.958 254.867 450.076 274.85C452.453 278.215 465.415 294.802 466.218 297.304C464.466 297.753 463.244 298.166 461.419 298.211C453.741 299.103 446.064 299.929 438.38 300.695C448.206 317.02 456.914 330.499 467.55 346.344L469 348.247C468.558 348.439 468.139 348.726 467.66 348.785C462.677 353.143 428.686 369.01 419.927 373.663C385.663 391.883 361.269 406.519 331.532 431.006C330.31 432.23 321.632 441.329 321.198 441.55C320.97 439.965 321.308 439.825 321.838 438.277L321.242 437.797L317.716 439.25C314.905 443.032 312.358 449.536 310.363 454.034C307.949 445.038 309.259 427.261 304.136 420.108C298.431 428.337 292.528 436.411 286.412 444.337C284.38 447.228 282.437 450.177 280.575 453.178C278.528 451.35 276.681 449.934 274.502 448.253C266.781 447.722 255.725 446.608 248.394 448.017C243.58 448.223 236.571 448.393 233.101 452.072C231.025 449.934 230.652 449.182 229.072 446.594C222.241 437.886 215.527 429.089 208.93 420.197C205.041 428.16 204.111 444.92 203.417 454.174C201.065 449.971 198.217 443.113 195.91 438.394L188.435 429.812C185.951 431.176 186.086 431.449 184.886 433.978C155.501 408.429 129.61 392.664 94.7289 374.482C79.9863 366.798 58.9768 357.559 45.2484 349.574L44.4122 349.08L44 347.849C54.9917 332.269 65.6139 316.423 75.8592 300.334C67.4798 299.995 59.414 299.427 51.1318 298.093C48.4775 297.577 48.3951 298.063 47.2704 296.441C69.5327 267.64 78.88 252.052 95.9582 219.111L100.019 212.321C92.1203 194.084 82.2379 177.65 74.5085 158.326C54.4529 108.185 56.9673 55.516 70.5735 4.27578L77.6316 8.36655C115.201 29.9597 158.184 59.9231 187.248 92.7114C195.855 102.421 202.356 114.431 210.056 124.443C241.983 123.974 272.183 124.629 303.731 124.538C310.834 112.743 323.524 94.3556 333.247 84.4583C354.314 63.0111 402.386 25.0645 428.789 12.5488Z" fill="#F08223"/>
<path d="M95.9582 219.111C98.8252 217.64 100.793 216.457 104.014 217.896C126.244 227.823 147.604 239.647 169.954 249.394C176.411 252.21 185.688 255.676 190.896 260.165L191.121 260.771C196.347 262.39 207.513 266.472 212.56 268.783C214.953 270.898 218.85 276.385 221.339 279.232C233.788 293.467 244.912 310.665 257.234 324.718C267.546 311.247 277.954 297.503 288.701 284.397C290.887 281.73 296.621 274.681 298.998 272.47C298.321 280.254 290.408 302.709 292.403 305.99L293.205 305.326C297.46 305.105 302.222 304.537 306.543 304.176L307.61 304.073C313.948 302.745 324.716 297.687 330.355 301.05L332.695 300.371C342.794 297.37 349.066 297.392 359.496 296.972L360.386 295.497C362.484 294.301 365.664 294.568 368.218 294.529C373.959 295.667 379.951 296.876 385.479 298.86L386.73 299.656C393.855 298.373 432.175 298.557 438.38 300.696C448.206 317.02 456.914 330.499 467.55 346.345L469 348.247C468.558 348.439 468.139 348.726 467.66 348.785C462.677 353.143 428.686 369.011 419.927 373.663C385.663 391.883 361.269 406.519 331.532 431.007C330.31 432.231 321.632 441.329 321.198 441.55C320.97 439.965 321.308 439.825 321.838 438.277L321.242 437.797L317.716 439.25C314.905 443.033 312.358 449.536 310.363 454.034C307.949 445.038 309.259 427.261 304.136 420.109C298.431 428.337 292.528 436.411 286.412 444.338C284.38 447.228 282.437 450.177 280.575 453.178C278.528 451.35 276.681 449.934 274.502 448.253C266.781 447.722 255.725 446.609 248.394 448.017C243.58 448.223 236.571 448.393 233.101 452.072C231.025 449.934 230.652 449.182 229.072 446.594C222.241 437.886 215.527 429.089 208.93 420.197C205.041 428.16 204.111 444.92 203.417 454.174C201.065 449.971 198.217 443.114 195.91 438.395L188.435 429.812C185.951 431.176 186.086 431.449 184.886 433.978C155.501 408.429 129.61 392.665 94.7289 374.482C79.9863 366.799 58.9768 357.56 45.2484 349.574L44.4122 349.08L44 347.849C54.9917 332.269 65.6139 316.423 75.8592 300.334C67.4798 299.995 59.414 299.427 51.1318 298.093C48.4775 297.577 48.3951 298.063 47.2704 296.441C69.5327 267.64 78.88 252.052 95.9582 219.111Z" fill="#DA4525"/>
<path d="M368.218 294.529C373.959 295.667 379.951 296.876 385.479 298.859L386.73 299.656C393.855 298.373 432.175 298.557 438.38 300.695C448.206 317.02 456.914 330.499 467.55 346.344L469 348.247C468.558 348.438 468.139 348.726 467.66 348.785C462.677 353.143 428.686 369.01 419.926 373.663C385.663 391.883 361.269 406.519 331.532 431.006C330.31 432.23 321.632 441.329 321.198 441.55C320.97 439.965 321.308 439.825 321.838 438.276L321.242 437.797L317.716 439.25C314.905 443.032 312.358 449.536 310.363 454.033C307.949 445.038 309.259 427.26 304.136 420.108L305.041 418.552C304.747 418.014 304.305 417.225 304.114 416.591C298.402 397.789 292.668 378.139 288.73 358.909C288.458 357.589 289.105 356.151 289.628 355.089L290.769 355.377L290.776 354.529C294.832 352.87 297.725 346.278 301.493 342.525C303.024 340.224 304.489 337.99 306.123 335.771C314.139 321.997 315.994 308.865 330.355 301.049L332.695 300.371C342.794 297.37 349.065 297.392 359.495 296.972L360.386 295.497C362.484 294.3 365.664 294.568 368.218 294.529Z" fill="#F4972E"/>
<path d="M385.052 344.693C409.636 345.187 433.757 347.797 458.46 348.07C460.616 348.365 462.427 348.63 464.62 348.726L467.66 348.785C462.677 353.143 428.686 369.011 419.927 373.663C385.663 391.883 361.269 406.519 331.532 431.006C330.31 432.23 321.632 441.329 321.198 441.55C320.97 439.965 321.308 439.825 321.838 438.277L321.242 437.797L317.716 439.25C314.905 443.032 312.358 449.536 310.363 454.034C307.949 445.038 309.259 427.261 304.136 420.108L305.041 418.553C308.567 410.965 312.166 402.995 316.112 395.651C317.591 390.283 375.932 350.488 385.052 344.693Z" fill="white"/>
<path d="M464.62 348.726L467.66 348.785C462.677 353.143 428.686 369.01 419.926 373.663C385.663 391.883 361.269 406.519 331.532 431.006C329.957 430.217 328.161 429.605 326.498 428.971C337.097 414.733 384.419 364.601 399.28 360.9C413.876 357.257 429.797 355.067 444.68 352.892C450.981 351.97 458.128 351.779 464.179 349.876L464.62 348.726Z" fill="#FACA71"/>
<path d="M305.041 418.553C308.567 410.965 312.166 402.995 316.112 395.651C316.914 402.744 317.319 409.881 317.326 417.026C317.341 420.433 316.848 436.411 317.415 438.616L317.716 439.25C314.905 443.032 312.358 449.536 310.363 454.034C307.949 445.038 309.259 427.261 304.136 420.108L305.041 418.553Z" fill="#FACA71"/>
<path d="M326.498 428.971C328.161 429.605 329.957 430.217 331.532 431.006C330.31 432.23 321.632 441.329 321.198 441.55C320.97 439.965 321.308 439.825 321.838 438.276L321.242 437.797L317.716 439.25L317.415 438.616L326.498 428.971Z" fill="#F08223"/>
<path d="M301.493 342.525C306.639 345.718 343.317 339.509 348.042 341.943L346.622 345.614L347.372 345.843L349.779 342.54C355.697 340.859 395.482 329.931 398.257 331.118C394.407 335.063 388.526 340.689 385.052 344.693C375.932 350.488 317.591 390.283 316.112 395.651C312.166 402.995 308.567 410.965 305.041 418.553C304.747 418.014 304.305 417.225 304.114 416.591C298.402 397.789 292.668 378.139 288.73 358.909C288.458 357.589 289.105 356.151 289.628 355.089L290.769 355.377L290.776 354.529C294.832 352.87 297.725 346.278 301.493 342.525Z" fill="#F08223"/>
<path d="M385.478 298.86L386.73 299.656C393.855 298.373 432.174 298.557 438.38 300.696C448.206 317.02 456.914 330.499 467.55 346.345L469 348.247C468.558 348.439 468.139 348.726 467.66 348.785L464.62 348.726C462.427 348.63 460.616 348.365 458.459 348.07C455.456 343.978 409.018 330.602 401.385 328.243C394.113 320.08 387.76 311.21 381.276 302.414L385.478 298.86Z" fill="#F69723"/>
<path d="M385.478 298.86L386.73 299.656C396.704 305.297 463.509 346.035 467.55 346.345L469 348.247C468.558 348.439 468.139 348.726 467.66 348.785L464.62 348.726C462.427 348.63 460.616 348.365 458.459 348.07C455.456 343.978 409.018 330.602 401.385 328.243C394.113 320.08 387.76 311.21 381.276 302.414L385.478 298.86Z" fill="#EC6D25"/>
<path d="M381.276 302.413C387.76 311.21 394.113 320.08 401.385 328.243C409.018 330.602 455.456 343.977 458.46 348.07C433.757 347.797 409.636 345.187 385.052 344.693C388.526 340.689 394.407 335.063 398.257 331.118L399.39 330.514L399.53 329.577C395.018 328.722 356.433 339.583 348.786 341.588C355.359 332.187 371.648 314.521 375.947 306.926C377.743 305.444 379.524 303.94 381.276 302.413Z" fill="#F69723"/>
<path d="M330.355 301.049L332.695 300.371C342.794 297.37 349.066 297.392 359.496 296.972C354.402 308.851 352.812 313.769 342.89 322.654C330.031 330.838 320.624 328.272 308.059 335.093C306.83 335.764 307.375 335.579 306.123 335.771C314.139 321.997 315.994 308.865 330.355 301.049Z" fill="white"/>
<path d="M368.218 294.529C373.959 295.667 379.951 296.876 385.479 298.859L381.276 302.413C379.524 303.94 377.743 305.444 375.947 306.926C367.739 310.436 348.212 324.703 342.89 322.653C352.812 313.768 354.402 308.85 359.496 296.972L360.386 295.497C362.484 294.3 365.664 294.568 368.218 294.529Z" fill="#DA4525"/>
<path d="M191.121 260.77C196.347 262.389 207.513 266.471 212.56 268.783C214.953 270.898 218.85 276.384 221.339 279.231C233.788 293.467 244.912 310.664 257.234 324.718C267.546 311.247 277.954 297.503 288.701 284.397C290.887 281.73 296.621 274.68 298.998 272.47C298.321 280.254 290.408 302.708 292.403 305.989L293.205 305.326C297.46 305.105 302.222 304.537 306.543 304.176L307.61 304.072C313.948 302.745 324.716 297.687 330.355 301.049C315.994 308.865 314.139 321.997 306.123 335.771C304.489 337.99 303.025 340.224 301.494 342.525C297.725 346.278 294.832 352.87 290.776 354.529L290.769 355.377L289.628 355.089C289.106 356.151 288.458 357.589 288.73 358.909C292.668 378.139 298.402 397.789 304.114 416.591C304.305 417.225 304.747 418.014 305.041 418.552L304.136 420.108C298.431 428.337 292.528 436.411 286.412 444.337C284.38 447.228 282.437 450.177 280.574 453.178C278.528 451.349 276.681 449.934 274.502 448.253C266.781 447.722 255.725 446.608 248.394 448.017C243.58 448.223 236.571 448.393 233.101 452.072C231.025 449.934 230.652 449.182 229.072 446.593C231.769 441.698 230.605 409.107 231.243 401.35C234.132 366.171 234.686 329.887 216.804 298.151C209.522 285.232 199.311 273.712 191.482 261.348L191.121 260.77Z" fill="#F4972E"/>
<path d="M307.61 304.072C313.948 302.745 324.716 297.687 330.355 301.049C315.994 308.865 314.139 321.997 306.123 335.771C304.489 337.99 303.025 340.224 301.494 342.525C297.725 346.278 294.832 352.87 290.776 354.529L290.769 355.377L289.628 355.089C289.106 356.151 288.458 357.589 288.73 358.909C292.668 378.139 298.402 397.789 304.114 416.591C304.305 417.225 304.747 418.014 305.041 418.553L304.136 420.108C298.431 428.337 292.528 436.411 286.412 444.337C284.321 442.376 283.651 441.55 283.497 438.409C282.201 412.13 280.906 384.34 280.597 358.171C280.508 351.004 288.936 310.878 292.403 305.99L293.205 305.326C297.46 305.105 302.222 304.537 306.543 304.176L307.61 304.072Z" fill="#F69723"/>
<path d="M307.61 304.072C313.948 302.745 324.716 297.687 330.355 301.049C315.994 308.865 314.139 321.997 306.123 335.771C304.489 337.99 303.025 340.224 301.494 342.525C297.725 346.278 294.832 352.87 290.776 354.529L290.769 355.377L289.628 355.089C291.115 345.71 302.59 313.754 306.543 304.176L307.61 304.072Z" fill="#DA4525"/>
<path d="M95.9581 219.111C98.8251 217.64 100.793 216.457 104.014 217.896C126.243 227.823 147.603 239.647 169.954 249.394C176.411 252.21 185.688 255.676 190.896 260.165L191.121 260.771L191.482 261.348C199.311 273.713 209.522 285.232 216.804 298.152C234.686 329.887 234.132 366.172 231.243 401.35C230.605 409.107 231.769 441.698 229.072 446.594C222.241 437.886 215.527 429.089 208.929 420.197L208.354 418.759C206.054 415.242 197.651 397.642 196.787 393.542C201.823 385.623 212.111 356.608 215.307 346.905C211.858 342.525 209.908 339.908 206.988 335.189C200.665 324.777 195.197 307.081 186.001 302.414C190.495 299.921 198.563 303.158 204.453 304.404C183.323 277.541 152.443 274.555 120.485 271.352C110.099 270.312 91.5262 280.754 81.066 284.556C73.6148 287.263 56.5012 293.394 51.1316 298.093C48.4774 297.577 48.395 298.063 47.2703 296.441C69.5326 267.64 78.8799 252.052 95.9581 219.111Z" fill="#E75F21"/>
<path d="M215.308 346.905C217.728 349.958 219.532 354.293 222.219 356.926L223.881 356.055C224.313 357.685 224.728 359.919 224.317 361.527C221.496 372.55 212.732 410.722 208.354 418.759C206.054 415.242 197.651 397.642 196.787 393.542C201.823 385.623 212.112 356.608 215.308 346.905Z" fill="#DA4525"/>
<path d="M186.001 302.414C190.495 299.921 198.563 303.158 204.453 304.404C210.572 307.892 221.328 347.524 223.88 356.055L222.219 356.925C219.532 354.293 217.728 349.958 215.308 346.905C211.858 342.525 209.908 339.908 206.988 335.189C200.665 324.777 195.197 307.081 186.001 302.414Z" fill="#DA4525"/>
<path d="M122.789 344.619C123.927 344.634 126.7 344.759 127.531 345.298C146.606 357.596 180.11 379.378 196.372 393.394L196.787 393.542C197.651 397.642 206.054 415.242 208.354 418.759L208.93 420.197C205.041 428.16 204.111 444.92 203.417 454.174C201.065 449.971 198.217 443.114 195.91 438.395L188.435 429.812C185.951 431.176 186.086 431.449 184.886 433.978C155.501 408.429 129.61 392.664 94.729 374.482C79.9863 366.798 58.9768 357.56 45.2484 349.574L44.4122 349.08C47.2741 348.446 50.6048 348.63 53.5777 348.638C76.6586 347.487 99.7298 346.145 122.789 344.619Z" fill="white"/>
<path d="M44.4122 349.08C47.2741 348.446 50.6048 348.63 53.5777 348.638L50.409 349.744C51.7575 350.887 50.8499 350.429 52.6974 350.643C74.2222 353.106 95.6454 358.267 117.186 360.863C137.223 377.143 156.318 393.911 173.735 413C177.518 417.152 185.428 425.336 188.435 429.812C185.951 431.176 186.086 431.449 184.886 433.978C155.501 408.429 129.61 392.664 94.729 374.482C79.9863 366.798 58.9768 357.56 45.2484 349.574L44.4122 349.08Z" fill="#F08223"/>
<path d="M196.372 393.394L196.787 393.542C197.651 397.641 206.054 415.242 208.354 418.759L208.93 420.197C205.041 428.16 204.111 444.92 203.417 454.174C201.065 449.971 198.217 443.113 195.91 438.394C196.183 435.792 195.764 424.709 195.752 421.273C195.761 411.975 195.967 402.685 196.372 393.394Z" fill="#F08223"/>
<path d="M122.789 344.619L121.022 343.882L122.307 342.835C121.338 337.253 113.073 333.869 109.636 329.275C113.687 328.044 128.918 307.457 133.04 302.642C145.378 308.644 155.127 316.556 166.971 323.103C168.338 323.855 169.171 323.118 170.338 322.514C182.16 329.481 191.972 328.678 203.901 334.038C205.128 334.591 205.666 334.997 206.988 335.188C209.908 339.907 211.857 342.525 215.307 346.905C212.111 356.608 201.823 385.623 196.787 393.542L196.371 393.394C180.11 379.378 146.606 357.596 127.531 345.297C126.7 344.759 123.927 344.634 122.789 344.619Z" fill="#E85922"/>
<path d="M151.742 296.33C166.028 297.023 172.497 297.348 186.001 302.413C195.198 307.081 200.665 324.777 206.989 335.188C205.666 334.997 205.129 334.591 203.902 334.038C191.972 328.678 182.16 329.481 170.338 322.513C161.017 313.717 158.444 307.383 151.742 296.33Z" fill="white"/>
<path d="M428.789 12.5488C433.566 9.3856 437.842 6.86237 442.818 4C455.648 55.6834 459.07 105.472 439.211 156.354C431.38 176.419 421.737 193.022 413.633 211.896C425.226 233.319 435.958 254.867 450.076 274.85C452.453 278.215 465.415 294.802 466.218 297.304C464.466 297.753 463.244 298.166 461.418 298.211C453.741 299.103 446.064 299.929 438.38 300.695C432.175 298.557 393.855 298.373 386.73 299.656L385.479 298.86C379.951 296.876 373.959 295.667 368.218 294.529C365.664 294.568 362.484 294.301 360.386 295.497L359.495 296.972C349.065 297.392 342.794 297.37 332.695 300.371L330.355 301.049C324.716 297.687 313.948 302.745 307.61 304.073L306.543 304.176C302.222 304.537 297.46 305.105 293.205 305.326L292.403 305.99C290.408 302.708 298.321 280.254 298.998 272.47L300.272 269.22C303.488 256.864 306.212 240.043 308.538 227.196C311.887 208.327 315.501 189.505 319.372 170.736C321.161 161.936 322.964 151.75 325.423 143.197C329.56 146.069 334.293 149.948 338.334 153.096C345.503 133.613 356.853 115.942 368.328 98.7863C360.07 101.889 338.267 149.809 336.854 150.371C333.483 147.905 330.09 145.468 326.674 143.06C331.687 128.548 341.903 111.682 350.773 98.9979C354.218 94.0835 361.085 87.5684 363.198 82.3266C348.58 95.048 332.099 125.878 325.128 143.681C321.198 140.298 306.44 127.978 303.731 124.538C310.834 112.743 323.524 94.3556 333.247 84.4583C354.314 63.0111 402.386 25.0645 428.789 12.5488Z" fill="#F7A32A"/>
<path d="M368.328 98.7863C372.384 94.9425 380.363 83.5403 385.331 78.2646C401.157 61.4745 417.505 44.4463 435.472 29.9331L436.591 30.1993L438.012 30.5547C439.866 35.7412 440.963 48.8696 441.427 54.567C444.46 92.0035 436.459 120.978 420.847 154.378C413.449 170.214 405.073 183.299 397.41 198.224L397.734 199.145L396.946 199.321C378.236 185.121 356.934 166.074 338.334 153.096C345.503 133.613 356.853 115.942 368.328 98.7863Z" fill="#E86123"/>
<path d="M368.328 98.7863C372.384 94.9425 380.363 83.5403 385.331 78.2646C401.157 61.4745 417.505 44.4463 435.472 29.9331L436.591 30.1993C416.666 58.034 389.431 95.4152 373.569 125.084C384.522 122.296 395.423 119.659 406.147 116.064C396.336 127.117 383.992 141.446 375.115 153.231C382.468 154.652 392.25 157.036 399.265 158.149C391.662 163.642 384.595 168.729 377.301 174.648C383.749 181.962 391.455 190.547 397.41 198.224L397.734 199.145L396.946 199.321C378.236 185.121 356.934 166.074 338.334 153.096C345.503 133.613 356.853 115.942 368.328 98.7863Z" fill="white"/>
<path d="M428.789 12.5486C430.518 12.1622 432.263 11.7972 434.007 11.4543C433.529 12.727 433.669 13.1591 432.469 13.8581C423.747 18.9399 368.225 74.0209 363.198 82.3264C348.58 95.0478 332.099 125.878 325.129 143.681C321.198 140.298 306.44 127.978 303.731 124.538C310.834 112.743 323.524 94.3554 333.247 84.458C354.314 63.0109 402.386 25.0643 428.789 12.5486Z" fill="#EC6D25"/>
<path d="M395.173 271.567C405.448 269.482 440.109 288.774 451.283 292.197C453.756 292.955 459.681 296.175 461.419 298.21C453.741 299.102 446.064 299.928 438.38 300.695C432.175 298.557 393.855 298.372 386.73 299.655L385.479 298.859C379.951 296.876 373.959 295.666 368.218 294.529C372.509 288.036 393.789 278.254 396.844 272.383L395.173 271.567Z" fill="#F08223"/>
<path d="M307.61 304.072C308.199 302.966 308.376 302.472 309.207 301.551C331.54 276.767 365.067 274.511 395.173 271.567L396.843 272.384C393.789 278.254 372.509 288.036 368.218 294.529C365.664 294.568 362.484 294.3 360.386 295.497L359.495 296.972C349.065 297.392 342.794 297.37 332.695 300.371L330.354 301.049C324.716 297.687 313.948 302.745 307.61 304.072Z" fill="#EC6D25"/>
<path d="M300.272 269.22L326.461 259.573C316.774 268.389 297.511 292.952 293.205 305.326L292.403 305.99C290.408 302.708 298.321 280.254 298.998 272.47L300.272 269.22Z" fill="#FACA71"/>
<path d="M70.5733 4.27588L77.6314 8.36664C81.7379 15.8396 96.3275 27.3997 102.77 33.8921C138.438 69.8383 168.986 94.6809 188.746 142.889C186.463 144.622 177.084 152.395 175.381 152.497C170.096 157.214 117.373 199.012 114.396 199.832C110.026 203.365 103.592 209.7 100.019 212.321C92.1201 194.084 82.2377 177.651 74.5083 158.326C54.4527 108.185 56.9671 55.5161 70.5733 4.27588Z" fill="#DA4525"/>
<path d="M70.5733 4.27588L77.6314 8.36664C81.7379 15.8396 96.3275 27.3997 102.77 33.8921C138.438 69.8383 168.986 94.6809 188.746 142.889C186.463 144.622 177.084 152.395 175.381 152.497C158.251 109.051 124.438 71.8925 90.2542 40.7884C86.487 37.3605 82.1472 32.9895 77.942 30.3366L76.5148 30.3543C71.8511 36.2007 71.5677 81.0231 73.3379 95.9646C77.0882 127.625 98.85 169.564 114.318 198.277C114.479 198.391 114.64 198.506 114.801 198.62L114.396 199.832C110.026 203.365 103.592 209.7 100.019 212.321C92.1201 194.084 82.2377 177.651 74.5083 158.326C54.4527 108.185 56.9671 55.5161 70.5733 4.27588Z" fill="#E75F21"/>
<path d="M77.942 30.3367C82.1472 32.9896 86.487 37.3606 90.2542 40.7885C124.438 71.8926 158.251 109.051 175.381 152.497C170.096 157.214 117.373 199.012 114.396 199.832L114.801 198.62C121.825 191.279 129.411 182.244 136.196 174.532C129.257 169.06 122.357 163.519 115.199 158.339C123.722 156.302 130.409 154.808 139.091 153.404C129.369 141.228 118.369 128.742 108.275 116.719C117.535 119.906 130.467 123.063 140.394 126.066C119.028 90.3182 100.692 64.3599 77.942 30.3367Z" fill="white"/>
<path d="M188.746 142.889C190.108 156.486 213.16 266.902 212.56 268.783C207.513 266.471 196.347 262.39 191.121 260.77L190.896 260.164C185.688 255.675 176.411 252.21 169.954 249.394C147.603 239.646 126.243 227.823 104.014 217.895C100.792 216.457 98.825 217.639 95.958 219.11L100.019 212.321C103.592 209.7 110.026 203.364 114.396 199.832C117.373 199.012 170.096 157.213 175.381 152.497C177.084 152.395 186.463 144.622 188.746 142.889Z" fill="#EC6D25"/>
<path d="M304.136 420.108C309.259 427.261 307.949 445.038 310.363 454.034C312.358 449.536 314.905 443.032 317.716 439.25L321.242 437.797L321.838 438.277C321.308 439.825 320.97 439.965 321.198 441.55L320.675 442.509C316.436 450.347 314.154 459.07 310.834 466.237C305.991 476.692 288.796 496.254 278.911 501.85C278.256 502.16 277.593 502.455 276.924 502.735C262.357 508.907 250.433 508.066 236.2 502.234C226.98 497.176 208.431 478.69 203.953 468.884C196.737 453.075 198.333 446.778 184.886 433.978C186.086 431.449 185.951 431.176 188.435 429.812L195.91 438.394C198.217 443.113 201.065 449.971 203.417 454.174C204.111 444.92 205.041 428.16 208.93 420.197C215.527 429.089 222.241 437.886 229.072 446.594C230.652 449.182 231.025 449.934 233.101 452.072C236.571 448.393 243.58 448.223 248.394 448.017C255.725 446.609 266.781 447.722 274.502 448.253C276.681 449.934 278.528 451.35 280.575 453.178C282.437 450.177 284.38 447.228 286.412 444.338C292.528 436.411 298.431 428.337 304.136 420.108Z" fill="white"/>
<path d="M248.394 448.017C255.725 446.608 266.78 447.722 274.502 448.253C276.681 449.934 278.528 451.349 280.574 453.178C284.122 459.431 287.876 463.324 283.401 469.923C275.422 477.827 268.856 481.772 260.126 488.497C259.265 489.161 258.713 490.444 258.514 491.557L258.124 491.572L256.181 489.242C248.592 485.393 233.312 475.49 229.292 467.21C227.561 463.641 231.466 455.899 233.101 452.072C236.571 448.393 243.58 448.223 248.394 448.017Z" fill="#DA4525"/>
<path d="M233.101 452.072C236.571 448.393 243.58 448.223 248.394 448.017C251.794 448.209 252.17 447.692 254.65 449.256C255.136 452.33 253.737 454.292 252.471 457.595C249.468 458.605 246.951 459.239 244.294 460.957L244.345 461.717C246.752 462.218 247.12 462.174 249.498 462.196C254.621 467.18 256.1 482.399 256.181 489.242C248.592 485.393 233.312 475.49 229.292 467.21C227.561 463.641 231.466 455.899 233.101 452.072Z" fill="#DA4525"/>
<path d="M248.394 448.017C255.725 446.608 266.781 447.722 274.502 448.253C276.681 449.934 278.528 451.349 280.574 453.178C284.122 459.431 287.876 463.324 283.401 469.923C280.567 466.959 278.146 466.273 274.347 464.636C271.403 463.965 267.62 463.538 264.565 463.103C259.722 462.955 254.378 462.506 249.498 462.196C247.12 462.174 246.752 462.218 244.345 461.717L244.294 460.957C246.951 459.239 249.468 458.605 252.472 457.595C253.738 454.291 255.136 452.33 254.65 449.255C252.17 447.692 251.794 448.208 248.394 448.017Z" fill="#E75F21"/>
<path d="M252.472 457.595C256.446 457.55 259.788 457.374 263.733 457.978L264.565 463.103C259.722 462.955 254.378 462.505 249.498 462.196C247.12 462.174 246.752 462.218 244.345 461.716L244.294 460.957C246.951 459.239 249.468 458.605 252.472 457.595Z" fill="#F69723"/>
<path d="M263.733 457.978C269.467 459.129 271.123 459.711 274.347 464.637C271.403 463.966 267.62 463.538 264.565 463.103L263.733 457.978Z" fill="#FACA71"/>
<path d="M304.136 420.108C309.259 427.261 307.949 445.038 310.363 454.034C307.75 466.568 305.38 472.364 296.68 481.979C285.109 494.757 274.259 494.816 258.515 491.557C258.713 490.444 259.265 489.161 260.127 488.497C268.856 481.772 275.422 477.828 283.401 469.923C287.876 463.324 284.122 459.431 280.575 453.178C282.437 450.177 284.38 447.228 286.412 444.338C292.528 436.411 298.431 428.337 304.136 420.108Z" fill="white"/>
<path d="M184.886 433.978C186.086 431.449 185.951 431.176 188.435 429.812L195.91 438.395C198.217 443.114 201.065 449.971 203.417 454.174C207.212 482.34 229.579 499.203 258.124 491.572L258.515 491.557C274.259 494.816 285.109 494.757 296.68 481.979C305.38 472.364 307.75 466.569 310.363 454.034C312.358 449.536 314.905 443.033 317.716 439.25L321.242 437.797L321.838 438.277C321.308 439.825 320.97 439.965 321.198 441.55L320.675 442.509C316.436 450.347 314.154 459.07 310.834 466.237C305.991 476.692 288.796 496.254 278.911 501.85C278.256 502.16 277.593 502.455 276.924 502.735C262.357 508.907 250.433 508.066 236.2 502.234C226.98 497.176 208.431 478.691 203.953 468.884C196.737 453.075 198.333 446.778 184.886 433.978Z" fill="#DA4525"/>
<path d="M236.2 502.234C241.327 500.287 268.753 497.913 275.076 499.572C275.761 499.749 278.153 501.341 278.911 501.85C278.256 502.16 277.593 502.455 276.924 502.735C262.357 508.906 250.433 508.066 236.2 502.234Z" fill="#F08223"/>
</svg>
