<svg width="718" height="480" viewBox="0 0 718 480" fill="none" xmlns="http://www.w3.org/2000/svg">
<g clip-path="url(#clip0_2002_138)">
<path d="M475.975 111.14C479.22 108.995 482.125 107.284 485.505 105.343C494.22 140.39 496.545 174.152 483.055 208.656C477.735 222.262 471.185 233.521 465.68 246.319C473.555 260.847 480.845 275.458 490.435 289.009C492.05 291.291 500.855 302.539 501.4 304.235C500.21 304.54 499.38 304.82 498.14 304.85C492.925 305.455 487.71 306.015 482.49 306.535C489.165 317.605 495.08 326.745 502.305 337.49L503.29 338.78C502.99 338.91 502.705 339.105 502.38 339.145C498.995 342.1 475.905 352.86 469.955 356.015C446.68 368.37 430.11 378.295 409.91 394.9C409.08 395.73 403.185 401.9 402.89 402.05C402.735 400.975 402.965 400.88 403.325 399.83L402.92 399.505L400.525 400.49C398.615 403.055 396.885 407.465 395.53 410.515C393.89 404.415 394.78 392.36 391.3 387.51C387.425 393.09 383.415 398.565 379.26 403.94C377.88 405.9 376.56 407.9 375.295 409.935C373.905 408.695 372.65 407.735 371.17 406.595C365.925 406.235 358.415 405.48 353.435 406.435C350.165 406.575 345.404 406.69 343.047 409.185C341.637 407.735 341.384 407.225 340.31 405.47C335.67 399.565 331.109 393.6 326.628 387.57C323.986 392.97 323.355 404.335 322.883 410.61C321.285 407.76 319.351 403.11 317.784 399.91L312.706 394.09C311.019 395.015 311.11 395.2 310.295 396.915C290.334 379.59 272.747 368.9 249.053 356.57C239.038 351.36 224.767 345.095 215.441 339.68L214.873 339.345L214.593 338.51C222.06 327.945 229.275 317.2 236.235 306.29C230.543 306.06 225.064 305.675 219.438 304.77C217.635 304.42 217.579 304.75 216.815 303.65C231.937 284.12 238.287 273.55 249.888 251.212L252.646 246.608C247.281 234.241 240.568 223.097 235.317 209.993C221.694 175.992 223.402 140.277 232.644 105.53L237.439 108.304C262.959 122.947 292.157 143.265 311.9 165.499C317.746 172.083 322.162 180.227 327.393 187.017C349.08 186.699 369.595 187.143 391.025 187.081C395.85 179.083 404.47 166.614 411.075 159.903C425.385 145.359 458.04 119.627 475.975 111.14Z" fill="#F08223"/>
<path d="M249.888 251.211C251.835 250.214 253.172 249.412 255.36 250.387C270.46 257.119 284.97 265.137 300.152 271.747C304.538 273.656 310.84 276.006 314.378 279.05L314.531 279.461C318.081 280.559 325.666 283.327 329.094 284.895C330.719 286.329 333.366 290.049 335.057 291.98C343.514 301.633 351.07 313.295 359.44 322.825C366.445 313.69 373.515 304.37 380.815 295.483C382.3 293.674 386.195 288.894 387.81 287.395C387.35 292.673 381.975 307.9 383.33 310.125L383.875 309.675C386.765 309.525 390 309.14 392.935 308.895L393.66 308.825C397.965 307.925 405.28 304.495 409.11 306.775L410.7 306.315C417.56 304.28 421.82 304.295 428.905 304.01L429.51 303.01C430.935 302.198 433.095 302.38 434.83 302.353C438.73 303.125 442.8 303.945 446.555 305.29L447.405 305.83C452.245 304.96 478.275 305.085 482.49 306.535C489.165 317.605 495.08 326.745 502.305 337.49L503.29 338.78C502.99 338.91 502.705 339.105 502.38 339.145C498.995 342.1 475.905 352.86 469.955 356.015C446.68 368.37 430.11 378.295 409.91 394.9C409.08 395.73 403.185 401.9 402.89 402.05C402.735 400.975 402.965 400.88 403.325 399.83L402.92 399.505L400.525 400.49C398.615 403.055 396.885 407.465 395.53 410.515C393.89 404.415 394.78 392.36 391.3 387.51C387.425 393.09 383.415 398.565 379.26 403.94C377.88 405.9 376.56 407.9 375.295 409.935C373.905 408.695 372.65 407.735 371.17 406.595C365.925 406.235 358.415 405.48 353.435 406.435C350.165 406.575 345.404 406.69 343.047 409.185C341.637 407.735 341.384 407.225 340.31 405.47C335.67 399.565 331.109 393.6 326.628 387.57C323.986 392.97 323.355 404.335 322.883 410.61C321.285 407.76 319.351 403.11 317.784 399.91L312.706 394.09C311.019 395.015 311.11 395.2 310.295 396.915C290.334 379.59 272.747 368.9 249.053 356.57C239.038 351.36 224.767 345.095 215.441 339.68L214.873 339.345L214.593 338.51C222.06 327.945 229.275 317.2 236.235 306.29C230.543 306.06 225.064 305.675 219.438 304.77C217.635 304.42 217.579 304.75 216.815 303.65C231.937 284.119 238.287 273.549 249.888 251.211Z" fill="#DA4525"/>
<path d="M434.83 302.353C438.73 303.125 442.8 303.945 446.555 305.29L447.405 305.83C452.245 304.96 478.275 305.085 482.49 306.535C489.165 317.605 495.08 326.745 502.305 337.49L503.29 338.78C502.99 338.91 502.705 339.105 502.38 339.145C498.995 342.1 475.905 352.86 469.955 356.015C446.68 368.37 430.11 378.295 409.91 394.9C409.08 395.73 403.185 401.9 402.89 402.05C402.735 400.975 402.965 400.88 403.325 399.83L402.92 399.505L400.525 400.49C398.615 403.055 396.885 407.465 395.53 410.515C393.89 404.415 394.78 392.36 391.3 387.51L391.915 386.455C391.715 386.09 391.415 385.555 391.285 385.125C387.405 372.375 383.51 359.05 380.835 346.01C380.65 345.115 381.09 344.14 381.445 343.42L382.22 343.615L382.225 343.04C384.98 341.915 386.945 337.445 389.505 334.9C390.545 333.34 391.54 331.825 392.65 330.32C398.095 320.98 399.355 312.075 409.11 306.775L410.7 306.315C417.56 304.28 421.82 304.295 428.905 304.01L429.51 303.01C430.935 302.199 433.095 302.38 434.83 302.353Z" fill="#F4972E"/>
<path d="M446.265 336.37C462.965 336.705 479.35 338.475 496.13 338.66C497.595 338.86 498.825 339.04 500.315 339.105L502.38 339.145C498.995 342.1 475.905 352.86 469.955 356.015C446.68 368.37 430.11 378.295 409.91 394.9C409.08 395.73 403.185 401.9 402.89 402.05C402.735 400.975 402.965 400.88 403.325 399.83L402.92 399.505L400.525 400.49C398.615 403.055 396.885 407.465 395.53 410.515C393.89 404.415 394.78 392.36 391.3 387.51L391.915 386.455C394.31 381.31 396.755 375.905 399.435 370.925C400.44 367.285 440.07 340.3 446.265 336.37Z" fill="white"/>
<path d="M500.315 339.105L502.38 339.145C498.995 342.1 475.905 352.86 469.955 356.015C446.68 368.37 430.11 378.295 409.91 394.9C408.84 394.365 407.62 393.95 406.49 393.52C413.69 383.865 445.835 349.87 455.93 347.36C465.845 344.89 476.66 343.405 486.77 341.93C491.05 341.305 495.905 341.175 500.015 339.885L500.315 339.105Z" fill="#FACA71"/>
<path d="M391.915 386.455C394.31 381.31 396.755 375.905 399.435 370.925C399.98 375.735 400.255 380.575 400.26 385.42C400.27 387.73 399.935 398.565 400.32 400.06L400.525 400.49C398.615 403.055 396.885 407.465 395.53 410.515C393.89 404.415 394.78 392.36 391.3 387.51L391.915 386.455Z" fill="#FACA71"/>
<path d="M406.49 393.52C407.62 393.95 408.84 394.365 409.91 394.9C409.08 395.73 403.185 401.9 402.89 402.05C402.735 400.975 402.965 400.88 403.325 399.83L402.92 399.505L400.525 400.49L400.32 400.06L406.49 393.52Z" fill="#F08223"/>
<path d="M389.505 334.9C393 337.065 417.915 332.855 421.125 334.505L420.16 336.995L420.67 337.15L422.305 334.91C426.325 333.77 453.35 326.36 455.235 327.165C452.62 329.84 448.625 333.655 446.265 336.37C440.07 340.3 400.44 367.285 399.435 370.925C396.755 375.905 394.31 381.31 391.915 386.455C391.715 386.09 391.415 385.555 391.285 385.125C387.405 372.375 383.51 359.05 380.835 346.01C380.65 345.115 381.09 344.14 381.445 343.42L382.22 343.615L382.225 343.04C384.98 341.915 386.945 337.445 389.505 334.9Z" fill="#F08223"/>
<path d="M446.555 305.29L447.405 305.83C452.245 304.96 478.275 305.085 482.49 306.535C489.165 317.605 495.08 326.745 502.305 337.49L503.29 338.78C502.99 338.91 502.705 339.105 502.38 339.145L500.315 339.105C498.825 339.04 497.595 338.86 496.13 338.66C494.09 335.885 462.545 326.815 457.36 325.215C452.42 319.68 448.105 313.665 443.7 307.7L446.555 305.29Z" fill="#F69723"/>
<path d="M446.555 305.29L447.405 305.83C454.18 309.655 499.56 337.28 502.305 337.49L503.29 338.78C502.99 338.91 502.705 339.105 502.38 339.145L500.315 339.105C498.825 339.04 497.595 338.86 496.13 338.66C494.09 335.885 462.545 326.815 457.36 325.215C452.42 319.68 448.105 313.665 443.7 307.7L446.555 305.29Z" fill="#EC6D25"/>
<path d="M443.7 307.7C448.105 313.665 452.42 319.68 457.36 325.215C462.545 326.815 494.09 335.885 496.13 338.66C479.35 338.475 462.965 336.705 446.265 336.37C448.625 333.655 452.62 329.84 455.235 327.165L456.005 326.755L456.1 326.12C453.035 325.54 426.825 332.905 421.63 334.265C426.095 327.89 437.16 315.91 440.08 310.76C441.3 309.755 442.51 308.735 443.7 307.7Z" fill="#F69723"/>
<path d="M409.11 306.775L410.7 306.315C417.56 304.28 421.82 304.295 428.905 304.01C425.445 312.065 424.365 315.4 417.625 321.425C408.89 326.975 402.5 325.235 393.965 329.86C393.13 330.315 393.5 330.19 392.65 330.32C398.095 320.98 399.355 312.075 409.11 306.775Z" fill="white"/>
<path d="M434.83 302.353C438.73 303.125 442.8 303.945 446.555 305.29L443.7 307.7C442.51 308.735 441.3 309.755 440.08 310.76C434.505 313.14 421.24 322.815 417.625 321.425C424.365 315.4 425.445 312.065 428.905 304.01L429.51 303.01C430.935 302.199 433.095 302.38 434.83 302.353Z" fill="#DA4525"/>
<path d="M314.531 279.461C318.081 280.559 325.666 283.327 329.094 284.895C330.719 286.329 333.366 290.05 335.057 291.98C343.514 301.634 351.07 313.295 359.44 322.825C366.445 313.69 373.515 304.37 380.815 295.483C382.3 293.675 386.195 288.894 387.81 287.395C387.35 292.673 381.975 307.9 383.33 310.125L383.875 309.675C386.765 309.525 390 309.14 392.935 308.895L393.66 308.825C397.965 307.925 405.28 304.495 409.11 306.775C399.355 312.075 398.095 320.98 392.65 330.32C391.54 331.825 390.545 333.34 389.505 334.9C386.945 337.445 384.98 341.915 382.225 343.04L382.22 343.615L381.445 343.42C381.09 344.14 380.65 345.115 380.835 346.01C383.51 359.05 387.405 372.375 391.285 385.125C391.415 385.555 391.715 386.09 391.915 386.455L391.3 387.51C387.425 393.09 383.415 398.565 379.26 403.94C377.88 405.9 376.56 407.9 375.295 409.935C373.905 408.695 372.65 407.735 371.17 406.595C365.925 406.235 358.415 405.48 353.435 406.435C350.165 406.575 345.404 406.69 343.047 409.185C341.637 407.735 341.384 407.225 340.31 405.47C342.142 402.15 341.352 380.05 341.785 374.79C343.747 350.935 344.124 326.33 331.977 304.81C327.03 296.049 320.094 288.237 314.776 279.853L314.531 279.461Z" fill="#F4972E"/>
<path d="M393.66 308.825C397.965 307.925 405.28 304.495 409.11 306.775C399.355 312.075 398.095 320.98 392.65 330.32C391.54 331.825 390.545 333.34 389.505 334.9C386.945 337.445 384.98 341.915 382.225 343.04L382.22 343.615L381.445 343.42C381.09 344.14 380.65 345.115 380.835 346.01C383.51 359.05 387.405 372.375 391.285 385.125C391.415 385.555 391.715 386.09 391.915 386.455L391.3 387.51C387.425 393.09 383.415 398.565 379.26 403.94C377.84 402.61 377.385 402.05 377.28 399.92C376.4 382.1 375.52 363.255 375.31 345.51C375.25 340.65 380.975 313.44 383.33 310.125L383.875 309.675C386.765 309.525 390 309.14 392.935 308.895L393.66 308.825Z" fill="#F69723"/>
<path d="M393.66 308.825C397.965 307.925 405.28 304.495 409.11 306.775C399.355 312.075 398.095 320.98 392.65 330.32C391.54 331.825 390.545 333.34 389.505 334.9C386.945 337.445 384.98 341.915 382.225 343.04L382.22 343.615L381.445 343.42C382.455 337.06 390.25 315.39 392.935 308.895L393.66 308.825Z" fill="#DA4525"/>
<path d="M249.887 251.211C251.835 250.214 253.171 249.412 255.36 250.387C270.46 257.119 284.969 265.137 300.152 271.747C304.538 273.656 310.84 276.006 314.377 279.05L314.53 279.461L314.775 279.853C320.093 288.237 327.03 296.049 331.976 304.81C344.123 326.33 343.747 350.935 341.784 374.79C341.351 380.05 342.142 402.15 340.31 405.47C335.67 399.565 331.109 393.6 326.627 387.57L326.236 386.595C324.674 384.21 318.966 372.275 318.379 369.495C321.8 364.125 328.789 344.45 330.96 337.87C328.616 334.9 327.292 333.125 325.309 329.925C321.013 322.865 317.299 310.865 311.052 307.7C314.105 306.01 319.586 308.205 323.587 309.05C309.233 290.833 288.257 288.808 266.548 286.637C259.493 285.931 246.877 293.012 239.771 295.59C234.71 297.426 223.085 301.584 219.437 304.77C217.634 304.42 217.578 304.75 216.814 303.65C231.937 284.119 238.286 273.549 249.887 251.211Z" fill="#E75F21"/>
<path d="M330.96 337.87C332.604 339.94 333.83 342.88 335.655 344.665L336.784 344.075C337.078 345.18 337.36 346.695 337.08 347.785C335.164 355.26 329.211 381.145 326.237 386.595C324.674 384.21 318.966 372.275 318.379 369.495C321.8 364.125 328.789 344.45 330.96 337.87Z" fill="#DA4525"/>
<path d="M311.052 307.7C314.105 306.01 319.586 308.205 323.587 309.05C327.743 311.415 335.05 338.29 336.784 344.075L335.655 344.665C333.829 342.88 332.604 339.94 330.96 337.87C328.616 334.9 327.292 333.125 325.309 329.925C321.013 322.865 317.299 310.865 311.052 307.7Z" fill="#DA4525"/>
<path d="M268.114 336.32C268.887 336.33 270.77 336.415 271.335 336.78C284.292 345.12 307.051 359.89 318.097 369.395L318.379 369.495C318.966 372.275 324.674 384.21 326.237 386.595L326.628 387.57C323.986 392.97 323.355 404.335 322.883 410.61C321.285 407.76 319.351 403.11 317.784 399.91L312.706 394.09C311.019 395.015 311.11 395.2 310.295 396.915C290.334 379.59 272.747 368.9 249.053 356.57C239.038 351.36 224.767 345.095 215.441 339.68L214.873 339.345C216.817 338.915 219.08 339.04 221.099 339.045C236.778 338.265 252.45 337.355 268.114 336.32Z" fill="white"/>
<path d="M214.873 339.345C216.817 338.915 219.08 339.04 221.099 339.045L218.947 339.795C219.863 340.57 219.246 340.26 220.501 340.405C235.123 342.075 249.675 345.575 264.308 347.335C277.918 358.375 290.889 369.745 302.72 382.69C305.29 385.505 310.663 391.055 312.706 394.09C311.019 395.015 311.11 395.2 310.295 396.915C290.334 379.59 272.747 368.9 249.053 356.57C239.038 351.36 224.767 345.095 215.441 339.68L214.873 339.345Z" fill="#F08223"/>
<path d="M318.097 369.395L318.379 369.495C318.966 372.275 324.674 384.21 326.237 386.595L326.628 387.57C323.986 392.97 323.355 404.335 322.883 410.61C321.285 407.76 319.351 403.11 317.784 399.91C317.969 398.145 317.684 390.63 317.676 388.3C317.682 381.995 317.823 375.695 318.097 369.395Z" fill="#F08223"/>
<path d="M268.113 336.32L266.913 335.82L267.786 335.11C267.128 331.325 261.513 329.03 259.178 325.915C261.93 325.08 272.277 311.12 275.076 307.855C283.457 311.925 290.08 317.29 298.126 321.73C299.054 322.24 299.62 321.74 300.413 321.33C308.443 326.055 315.108 325.51 323.212 329.145C324.045 329.52 324.41 329.795 325.309 329.925C327.292 333.125 328.616 334.9 330.96 337.87C328.789 344.45 321.8 364.125 318.379 369.495L318.097 369.395C307.051 359.89 284.292 345.12 271.334 336.78C270.77 336.415 268.886 336.33 268.113 336.32Z" fill="#E85922"/>
<path d="M287.781 303.575C297.485 304.045 301.879 304.265 311.053 307.7C317.3 310.865 321.014 322.865 325.309 329.925C324.411 329.795 324.046 329.52 323.212 329.145C315.109 325.51 308.444 326.055 300.413 321.33C294.081 315.365 292.334 311.07 287.781 303.575Z" fill="white"/>
<path d="M475.975 111.14C479.22 108.995 482.125 107.284 485.505 105.343C494.22 140.39 496.545 174.152 483.055 208.656C477.735 222.262 471.185 233.521 465.68 246.319C473.555 260.847 480.845 275.458 490.435 289.009C492.05 291.291 500.855 302.539 501.4 304.235C500.21 304.54 499.38 304.82 498.14 304.85C492.925 305.455 487.71 306.015 482.49 306.535C478.275 305.085 452.245 304.96 447.405 305.83L446.555 305.29C442.8 303.945 438.73 303.125 434.83 302.354C433.095 302.38 430.935 302.199 429.51 303.01L428.905 304.01C421.82 304.295 417.56 304.28 410.7 306.315L409.11 306.775C405.28 304.495 397.965 307.925 393.66 308.825L392.935 308.895C390 309.14 386.765 309.525 383.875 309.675L383.33 310.125C381.975 307.9 387.35 292.674 387.81 287.395L388.675 285.191C390.86 276.813 392.71 265.406 394.29 256.695C396.565 243.899 399.02 231.136 401.65 218.408C402.865 212.441 404.09 205.534 405.76 199.734C408.57 201.681 411.785 204.312 414.53 206.447C419.4 193.235 427.11 181.252 434.905 169.619C429.295 171.723 414.485 204.218 413.525 204.599C411.235 202.926 408.93 201.274 406.61 199.641C410.015 189.8 416.955 178.363 422.98 169.762C425.32 166.43 429.985 162.012 431.42 158.457C421.49 167.084 410.295 187.99 405.56 200.062C402.89 197.768 392.865 189.414 391.025 187.081C395.85 179.083 404.47 166.614 411.075 159.903C425.385 145.359 458.04 119.627 475.975 111.14Z" fill="#F7A32A"/>
<path d="M434.905 169.618C437.66 167.012 443.08 159.28 446.455 155.702C457.205 144.317 468.31 132.77 480.515 122.928L481.275 123.109L482.24 123.35C483.5 126.867 484.245 135.769 484.56 139.633C486.62 165.019 481.185 184.667 470.58 207.316C465.555 218.054 459.865 226.927 454.66 237.048L454.88 237.673L454.345 237.792C441.635 228.163 427.165 215.247 414.53 206.446C419.4 193.235 427.11 181.252 434.905 169.618Z" fill="#E86123"/>
<path d="M434.905 169.618C437.66 167.012 443.08 159.28 446.455 155.702C457.205 144.317 468.31 132.77 480.515 122.928L481.275 123.109C467.74 141.984 449.24 167.332 438.465 187.451C445.905 185.56 453.31 183.772 460.595 181.335C453.93 188.829 445.545 198.546 439.515 206.538C444.51 207.501 451.155 209.118 455.92 209.873C450.755 213.598 445.955 217.047 441 221.061C445.38 226.021 450.615 231.842 454.66 237.048L454.88 237.673L454.345 237.792C441.635 228.163 427.165 215.247 414.53 206.446C419.4 193.235 427.11 181.252 434.905 169.618Z" fill="white"/>
<path d="M475.975 111.14C477.15 110.878 478.335 110.631 479.52 110.398C479.195 111.261 479.29 111.554 478.475 112.028C472.55 115.474 434.835 152.825 431.42 158.457C421.49 167.084 410.295 187.99 405.56 200.062C402.89 197.768 392.865 189.413 391.025 187.081C395.85 179.082 404.47 166.614 411.075 159.902C425.385 145.359 458.04 119.627 475.975 111.14Z" fill="#EC6D25"/>
<path d="M453.14 286.783C460.12 285.369 483.665 298.451 491.255 300.772C492.935 301.286 496.96 303.47 498.14 304.85C492.925 305.455 487.71 306.015 482.49 306.535C478.275 305.085 452.245 304.96 447.405 305.83L446.555 305.29C442.8 303.945 438.73 303.125 434.83 302.353C437.745 297.95 452.2 291.317 454.275 287.336L453.14 286.783Z" fill="#F08223"/>
<path d="M393.66 308.825C394.06 308.075 394.18 307.74 394.745 307.115C409.915 290.309 432.69 288.779 453.14 286.783L454.275 287.336C452.2 291.317 437.745 297.95 434.83 302.353C433.095 302.38 430.935 302.198 429.51 303.01L428.905 304.01C421.82 304.295 417.56 304.28 410.7 306.315L409.11 306.775C405.28 304.495 397.965 307.925 393.66 308.825Z" fill="#EC6D25"/>
<path d="M388.675 285.191L406.465 278.65C399.885 284.628 386.8 301.284 383.875 309.675L383.33 310.125C381.975 307.9 387.35 292.674 387.81 287.395L388.675 285.191Z" fill="#FACA71"/>
<path d="M232.644 105.53L237.438 108.304C240.228 113.372 250.138 121.211 254.514 125.613C278.743 149.989 299.494 166.835 312.917 199.525C311.366 200.7 304.995 205.971 303.838 206.04C300.248 209.239 264.434 237.583 262.412 238.139C259.443 240.534 255.073 244.83 252.646 246.608C247.28 234.241 240.567 223.097 235.317 209.993C221.693 175.992 223.401 140.277 232.644 105.53Z" fill="#DA4525"/>
<path d="M232.644 105.53L237.438 108.304C240.228 113.372 250.138 121.211 254.514 125.613C278.743 149.989 299.494 166.835 312.917 199.525C311.366 200.7 304.995 205.971 303.838 206.04C292.202 176.579 269.233 151.382 246.013 130.29C243.454 127.965 240.506 125.001 237.649 123.202L236.68 123.214C233.512 127.179 233.319 157.573 234.522 167.705C237.069 189.174 251.852 217.614 262.359 237.084C262.468 237.162 262.578 237.239 262.687 237.317L262.412 238.139C259.443 240.534 255.073 244.83 252.646 246.608C247.28 234.241 240.567 223.097 235.317 209.993C221.693 175.992 223.401 140.277 232.644 105.53Z" fill="#E75F21"/>
<path d="M237.649 123.202C240.506 125.001 243.454 127.965 246.013 130.29C269.233 151.382 292.202 176.579 303.838 206.04C300.248 209.239 264.434 237.583 262.412 238.139L262.687 237.317C267.458 232.339 272.612 226.212 277.221 220.982C272.507 217.272 267.82 213.514 262.958 210.002C268.747 208.621 273.289 207.607 279.187 206.655C272.583 198.399 265.111 189.932 258.254 181.779C264.544 183.94 273.329 186.081 280.072 188.117C265.558 163.876 253.103 146.274 237.649 123.202Z" fill="white"/>
<path d="M312.917 199.525C313.842 208.746 329.501 283.62 329.093 284.895C325.665 283.328 318.08 280.56 314.53 279.462L314.377 279.051C310.84 276.007 304.538 273.657 300.152 271.747C284.969 265.137 270.46 257.12 255.36 250.388C253.171 249.412 251.835 250.214 249.887 251.212L252.646 246.608C255.073 244.83 259.443 240.534 262.412 238.139C264.434 237.583 300.248 209.239 303.838 206.04C304.995 205.971 311.366 200.7 312.917 199.525Z" fill="#EC6D25"/>
<path d="M621.56 250.225C649.19 241.166 690.17 245.625 717.205 256.44C709.7 259.501 703.805 261.849 696.72 265.928C667.78 282.589 653.15 309.35 637.985 337.57C635.265 342.625 626.38 359.54 623.34 363.51C621.565 367.67 618.1 372.775 615.505 376.62C603.8 393.985 590.755 407.065 573.195 418.535C558.59 427.585 542.505 433.99 525.68 437.455C474.11 448.47 409.665 436.945 367.58 474.325L362.02 479.92C364.675 471.09 369.22 460.1 373.15 451.81C385.24 447.205 396.37 434.76 402.66 423.43C404.7 419.76 406.64 409.95 409.285 407C421.92 392.885 440.665 380.49 458.075 373.04C463.07 370.96 472.755 369.86 478.055 368.64C491.315 365.58 503.22 362.38 515.38 356.08C554.775 335.245 570.47 308.165 583.605 268.238C594.21 261.405 609.565 253.776 621.56 250.225Z" fill="#E75F21"/>
<path d="M621.56 250.225C649.19 241.166 690.17 245.625 717.205 256.44C709.7 259.501 703.805 261.849 696.72 265.928C667.78 282.589 653.15 309.35 637.985 337.57C635.265 342.625 626.38 359.54 623.34 363.51C621.565 367.67 618.1 372.775 615.505 376.62C603.8 393.985 590.755 407.065 573.195 418.535C571.44 414.48 545.975 385.205 542.01 381.33C545.73 379.58 548.56 376.67 551.55 373.895C553.47 369.34 558.85 361.395 561.64 356.86C565.865 349.91 569.865 342.82 573.625 335.605C579.675 324.1 585.435 312.17 590.735 300.303C593.075 295.052 595.375 289.951 598.375 285.025L598.865 284.239L598.58 283.248L596.69 282.524C595.035 283.259 592.67 284.079 590.925 284.746C598.69 274.913 607.395 265.636 616.01 256.539C617.96 254.482 619.98 252.581 621.56 250.225Z" fill="#F69723"/>
<path d="M621.56 250.225C649.19 241.166 690.17 245.625 717.205 256.44C709.7 259.501 703.805 261.849 696.72 265.928C667.78 282.589 653.15 309.35 637.985 337.57C635.265 342.625 626.38 359.54 623.34 363.51C623.565 360.315 625.67 352.15 626.47 348.71L634.525 314.865C623.65 320.42 611.72 325.83 600.605 331.08C607.7 312.03 616.01 292.932 623.54 273.98C621.255 274.578 619.18 275.355 616.955 276.14C611.51 277.698 601.165 281.561 596.69 282.524C595.035 283.259 592.67 284.079 590.925 284.746C598.69 274.913 607.395 265.636 616.01 256.539C617.96 254.482 619.98 252.581 621.56 250.225Z" fill="#FACA71"/>
<path d="M616.955 276.139C618.865 276.349 619.025 276.37 620.78 275.62L621.765 275.983C621.55 276.499 620.36 279.537 620.27 279.703C618.645 282.815 616.2 286.393 614.46 289.437C602.325 310.605 571.635 360.585 551.55 373.895C553.47 369.34 558.85 361.395 561.64 356.86C565.865 349.91 569.865 342.82 573.625 335.605C579.675 324.1 585.435 312.17 590.735 300.302C593.075 295.051 595.375 289.951 598.375 285.024L598.865 284.238L598.58 283.248L596.69 282.524C601.165 281.56 611.51 277.697 616.955 276.139Z" fill="#F08223"/>
<path d="M367.58 474.325C369.175 468.785 376.94 462.325 380.92 458.04C402.63 434.675 432.38 421.595 462.36 412.475C487.43 404.85 512.63 399.29 535.565 386.03C537.88 384.695 539.795 382.84 542.01 381.33C545.975 385.205 571.44 414.48 573.195 418.535C558.59 427.585 542.505 433.99 525.68 437.455C474.11 448.47 409.665 436.945 367.58 474.325Z" fill="#EC6D25"/>
<path d="M0.801025 256.56C25.0185 247.36 54.1575 243.004 79.764 246.599C84.7195 247.295 91.8315 248.471 96.5195 250.184C107.353 252.657 125.73 261.55 134.908 268.389C151.273 321.035 182.319 357.225 239.866 368.71C259.977 372.725 273.389 377.2 289.764 390.215C305.109 401.825 309.611 404.04 315.084 422.56C317.848 431.91 335.17 447.435 344.74 451.765C348.92 460.1 353.64 470.705 356.47 479.625C353.74 476.995 350.935 474.185 348 471.815C341.661 467.07 335.043 462.49 327.807 459.22C279.619 437.72 224.65 448.955 175.055 432.73C142.825 422.185 109.913 394.42 94.6255 363.56C93.1065 361.485 91.6015 358.645 90.351 356.335C72.476 323.335 56.065 285.647 22.0795 265.999C15.0615 261.942 8.32553 259.394 0.801025 256.56Z" fill="#E25424"/>
<path d="M96.5196 250.183C107.353 252.656 125.73 261.55 134.908 268.389C151.273 321.035 182.319 357.225 239.866 368.71C259.977 372.725 273.389 377.2 289.764 390.215C305.109 401.825 309.611 404.04 315.084 422.56C317.848 431.91 335.17 447.435 344.74 451.765C348.92 460.1 353.64 470.705 356.47 479.625C353.74 476.995 350.935 474.185 348 471.815C346.347 465.985 337.908 458.67 333.511 454.355C300.489 421.36 253.876 412.4 211.091 398.675C161.126 382.655 136.715 345.09 111.239 302.361C107.851 296.679 100.658 280.062 96.1736 276.477C95.9266 276.2 95.6466 275.431 95.4761 275.041C98.1241 274.429 122.162 282.64 126.602 284.128C121.639 277.875 116.417 271.832 110.95 266.014C107.991 262.893 98.3261 253.311 96.5196 250.183Z" fill="#DA4525"/>
<path d="M0.801025 256.56C25.0185 247.36 54.1575 243.004 79.764 246.599C84.7195 247.295 91.8315 248.471 96.5195 250.184C98.326 253.311 107.991 262.893 110.95 266.015C116.417 271.833 121.639 277.876 126.602 284.128C122.162 282.641 98.124 274.43 95.476 275.041C95.6465 275.431 95.9265 276.201 96.1735 276.477C98.524 284.568 102.091 292.191 105.352 299.903C109.836 310.48 114.246 321.085 118.583 331.725C112.441 327.625 90.966 318.075 83.428 315.2C85.304 322.65 95.0385 358.885 94.6255 363.56C93.1065 361.485 91.6015 358.645 90.351 356.335C72.476 323.335 56.065 285.647 22.0795 265.999C15.0615 261.942 8.32553 259.394 0.801025 256.56Z" fill="#EC6D25"/>
<path d="M36.5449 144.41C39.9939 142.362 43.5309 140.466 47.1459 138.728C71.5904 126.965 101.828 120.272 128.784 122.526C133.934 122.956 142.546 124.004 147.441 125.707C179.429 133.995 200.18 152.645 216.845 180.687C220.918 187.54 221.171 191.645 223.036 199.172C227.129 215.7 236.727 231.113 243.669 246.443C238.264 256.707 231.491 269.571 224.834 279.118C218.987 288.737 209.926 299.947 203.02 309.135C209.213 310.84 215.524 312.075 221.813 313.395C216.298 322.785 208.814 332.995 202.483 341.975C209.473 346.055 217.54 349.635 224.721 353.415C227.875 355.075 231.937 356.795 234.787 358.805C186.018 347.505 155.923 311.75 142.857 265.626C140.49 257.27 135.466 248.348 133.181 239.672C130.294 234.691 126.858 225.314 124.571 219.9C106.437 176.964 83.9889 152.799 36.5449 144.41Z" fill="#DA4525"/>
<path d="M147.441 125.708C179.429 133.996 200.18 152.646 216.845 180.688C220.918 187.54 221.171 191.646 223.036 199.172C227.129 215.701 236.727 231.114 243.669 246.444C238.264 256.708 231.491 269.571 224.834 279.119C219.383 273.408 210.999 265.446 206.282 259.418C189.485 237.952 176.496 211.879 163.029 188.069L149.288 164.041C148.577 162.77 142.818 152.392 142.458 152.068L141.922 153.256C140.917 151.391 139.8 148.753 138.889 146.775C152.344 148.295 166.196 150.78 179.569 153.061C173.076 147.624 166.488 142.3 159.809 137.094C156.534 134.519 149.974 129.652 147.218 126.9L147.441 125.708Z" fill="#E75F21"/>
<path d="M36.5449 144.41C39.9939 142.362 43.5309 140.466 47.1459 138.728C71.5904 126.965 101.828 120.272 128.784 122.526C133.934 122.956 142.546 124.004 147.441 125.707L147.218 126.899C149.974 129.651 156.534 134.519 159.809 137.093C166.488 142.3 173.076 147.623 179.569 153.061C166.196 150.779 152.344 148.294 138.889 146.775C139.8 148.752 140.917 151.39 141.922 153.255C148.71 169.117 156.304 188.254 163.529 203.623C158.986 200.799 151.773 197.847 146.733 195.59L119.912 183.552C121.851 190.84 134.038 235.869 133.181 239.672C130.294 234.691 126.858 225.314 124.571 219.9C106.437 176.964 83.9889 152.799 36.5449 144.41Z" fill="#ED8337"/>
<path d="M572.35 125.308C598.135 118.311 634.385 123.835 659.05 133.56C667.205 136.776 674.455 140.479 682.24 144.456C650.39 150.413 629.28 160.685 610.45 188.3C604.515 197.12 599.365 206.448 595.07 216.173C592.01 223.087 589.27 230.474 585.895 237.176C583.285 245.531 579.88 253.913 576.95 262.181C569.995 281.821 561.8 304.92 547.345 320.385C545.005 313.765 539.525 302.994 536.43 296.405C529.665 282.164 523.095 267.832 516.71 253.414C515.515 254.523 512.315 258.123 511.51 259.438C507.95 265.256 496.115 273.944 493.63 279.473C488.625 273.581 478.345 253.189 474.55 245.828C481.17 232.857 487.5 220.572 492.62 206.947C496.135 197.588 496.09 188.852 501.115 180.584C518.81 151.447 539.23 134.098 572.35 125.308Z" fill="#F4972E"/>
<path d="M572.35 125.308C571.9 126.426 541.25 151.291 538.465 153.402C551.965 150.871 565.5 148.554 579.07 146.452C577.7 149.784 575.985 154.186 574.265 157.334C571.2 160.404 569.28 162.849 567.125 166.646C554.035 189.76 540.79 212.81 527.875 236.027C526.28 238.898 517.22 251.854 516.71 253.413C515.515 254.522 512.315 258.123 511.51 259.438C507.95 265.255 496.115 273.944 493.63 279.473C488.625 273.58 478.345 253.189 474.55 245.828C481.17 232.857 487.5 220.571 492.62 206.947C496.135 197.587 496.09 188.852 501.115 180.583C518.81 151.447 539.23 134.098 572.35 125.308Z" fill="#F08223"/>
<path d="M572.35 125.308C598.135 118.311 634.385 123.835 659.05 133.56C667.205 136.776 674.455 140.479 682.24 144.456C650.39 150.413 629.28 160.685 610.45 188.3C604.515 197.12 599.365 206.448 595.07 216.173C592.01 223.087 589.27 230.474 585.895 237.176C585.96 233.281 588.37 224.496 589.285 220.119C591.865 207.775 594.93 195.414 597.98 183.173C584.925 189.586 568.445 197.745 555.145 203.218C561.26 188.217 568.495 172.179 574.265 157.335C575.985 154.187 577.7 149.784 579.07 146.453C565.5 148.555 551.965 150.872 538.465 153.403C541.25 151.292 571.9 126.426 572.35 125.308Z" fill="#FACA71"/>
<path d="M277.512 2.78054L275.877 1.43053L275.913 0.699528C278.475 0.131028 286.904 0.450029 289.772 0.663029C314.831 2.52053 340.798 9.97953 361.985 23.594C364.84 25.4275 372.805 30.894 375.17 33.285C394.42 48.914 406.245 70.157 410.285 94.5105C412.52 113.337 410.665 130.468 405.575 148.655C404.4 152.86 402.795 156.754 400.035 160.209C395.065 166.337 390.785 172.476 386.63 179.2C376.23 178.775 365.82 178.561 355.41 178.558L330.998 179.014C319.783 160.43 308.678 149.399 292.3 135.801C295.777 131.081 298.905 124.877 301.681 119.644C307.198 105.851 311.598 93.812 311.65 78.6955C311.762 46.352 299.06 25.0135 277.512 2.78054Z" fill="#E75F21"/>
<path d="M277.512 2.78054L275.877 1.43053L275.913 0.699528C278.475 0.131028 286.904 0.450029 289.772 0.663029C314.831 2.52053 340.798 9.97953 361.985 23.594C364.84 25.4275 372.805 30.894 375.17 33.285C375.615 36.569 391.19 64.5035 393.845 70.404C384.445 65.329 371.97 57.674 362.595 53.7195L362.61 68.776C362.32 77.4535 361.005 102.597 359.305 111.152C358.17 110.762 358.705 111.024 357.815 109.978C348.595 101.215 339.085 90.766 329.741 81.58C323.576 90.476 317.497 99.4315 311.506 108.446C310.513 109.957 306.463 115.948 305.891 117.308C304.136 118.823 303.897 118.982 301.681 119.644C307.198 105.851 311.598 93.812 311.65 78.6955C311.762 46.352 299.06 25.0135 277.512 2.78054Z" fill="#FACA71"/>
<path d="M277.512 2.78052C284.638 2.42802 307.217 19.9145 312.684 24.762C332.687 42.5 342.664 66.495 351.76 90.9685C353.605 95.937 357.215 105.145 357.815 109.978C348.595 101.215 339.085 90.766 329.741 81.58C323.576 90.476 317.497 99.4315 311.506 108.446C310.513 109.957 306.463 115.948 305.891 117.308C304.136 118.823 303.897 118.982 301.681 119.644C307.198 105.851 311.598 93.812 311.65 78.6955C311.762 46.352 299.06 25.0135 277.512 2.78052Z" fill="#F4972E"/>
<path d="M375.17 33.285C394.42 48.914 406.245 70.157 410.285 94.5105C412.52 113.337 410.665 130.468 405.575 148.655C404.4 152.86 402.795 156.754 400.035 160.209C395.065 166.337 390.785 172.476 386.63 179.2C376.23 178.775 365.82 178.561 355.41 178.558C356.92 172.869 365.44 163.225 364.575 159.044L364.835 158.695C368.895 132.116 371.065 103.652 367.4 76.9855C366.535 70.721 365.485 62.97 363.125 57.1175C363.105 60.4655 363.26 65.67 362.61 68.776L362.595 53.7195C371.97 57.674 384.445 65.329 393.845 70.404C391.19 64.5035 375.615 36.569 375.17 33.285Z" fill="#F08223"/>
<path d="M364.835 158.695L365.335 159.336C366.41 159.804 366.925 158.388 367.76 157.297C382.32 138.281 395.435 117.849 407.13 96.9625C408 95.4115 408.71 95.0415 410.285 94.5105C412.52 113.337 410.665 130.468 405.575 148.655C404.4 152.859 402.795 156.753 400.035 160.208C395.065 166.337 390.785 172.476 386.63 179.2C376.23 178.775 365.82 178.56 355.41 178.557C356.92 172.869 365.44 163.225 364.575 159.044L364.835 158.695Z" fill="#EC6D25"/>
<path d="M305.891 117.307C315.324 124.841 327.596 132.809 337.444 140.221C343.616 144.868 358.225 155.846 364.575 159.044C365.44 163.225 356.92 172.869 355.41 178.557L330.998 179.013C319.784 160.429 308.678 149.398 292.301 135.801C295.778 131.081 298.905 124.877 301.682 119.644C303.898 118.982 304.137 118.822 305.891 117.307Z" fill="#DA4525"/>
<path d="M391.3 387.51C394.78 392.36 393.89 404.415 395.53 410.515C396.885 407.465 398.615 403.055 400.525 400.49L402.92 399.505L403.325 399.83C402.965 400.88 402.735 400.975 402.89 402.05L402.535 402.7C399.655 408.015 398.105 413.93 395.85 418.79C392.56 425.88 380.88 439.145 374.165 442.94C373.72 443.15 373.27 443.35 372.815 443.54C362.92 447.725 354.82 447.155 345.152 443.2C338.889 439.77 326.289 427.235 323.247 420.585C318.345 409.865 319.43 405.595 310.295 396.915C311.11 395.2 311.019 395.015 312.706 394.09L317.784 399.91C319.351 403.11 321.285 407.76 322.883 410.61C323.355 404.335 323.986 392.97 326.628 387.57C331.109 393.6 335.67 399.565 340.31 405.47C341.384 407.225 341.637 407.735 343.047 409.185C345.404 406.69 350.165 406.575 353.435 406.435C358.415 405.48 365.925 406.235 371.17 406.595C372.65 407.735 373.905 408.695 375.295 409.935C376.56 407.9 377.88 405.9 379.26 403.94C383.415 398.565 387.425 393.09 391.3 387.51Z" fill="white"/>
<path d="M353.435 406.435C358.415 405.48 365.925 406.235 371.17 406.595C372.65 407.735 373.905 408.695 375.295 409.935C377.705 414.175 380.255 416.815 377.215 421.29C371.795 426.65 367.335 429.325 361.405 433.885C360.82 434.335 360.445 435.205 360.31 435.96L360.045 435.97L358.725 434.39C353.57 431.78 343.19 425.065 340.459 419.45C339.283 417.03 341.936 411.78 343.047 409.185C345.404 406.69 350.165 406.575 353.435 406.435Z" fill="#DA4525"/>
<path d="M343.047 409.185C345.404 406.69 350.165 406.575 353.435 406.435C355.745 406.565 356 406.215 357.685 407.275C358.015 409.36 357.065 410.69 356.205 412.93C354.165 413.615 352.455 414.045 350.65 415.21L350.685 415.725C352.32 416.065 352.57 416.035 354.185 416.05C357.665 419.43 358.67 429.75 358.725 434.39C353.57 431.78 343.19 425.065 340.459 419.45C339.283 417.03 341.936 411.78 343.047 409.185Z" fill="#DA4525"/>
<path d="M353.435 406.435C358.415 405.48 365.925 406.235 371.17 406.595C372.65 407.735 373.905 408.695 375.295 409.935C377.705 414.175 380.255 416.815 377.215 421.29C375.29 419.28 373.645 418.815 371.065 417.705C369.065 417.25 366.495 416.96 364.42 416.665C361.13 416.565 357.5 416.26 354.185 416.05C352.57 416.035 352.32 416.065 350.685 415.725L350.65 415.21C352.455 414.045 354.165 413.615 356.205 412.93C357.065 410.69 358.015 409.36 357.685 407.275C356 406.215 355.745 406.565 353.435 406.435Z" fill="#E75F21"/>
<path d="M356.205 412.93C358.905 412.9 361.175 412.78 363.855 413.19L364.42 416.665C361.13 416.565 357.5 416.26 354.185 416.05C352.57 416.035 352.32 416.065 350.685 415.725L350.65 415.21C352.455 414.045 354.165 413.615 356.205 412.93Z" fill="#F69723"/>
<path d="M363.855 413.19C367.75 413.97 368.875 414.365 371.065 417.705C369.065 417.25 366.495 416.96 364.42 416.665L363.855 413.19Z" fill="#FACA71"/>
<path d="M391.3 387.51C394.78 392.36 393.89 404.415 395.53 410.515C393.755 419.015 392.145 422.945 386.235 429.465C378.375 438.13 371.005 438.17 360.31 435.96C360.445 435.205 360.82 434.335 361.405 433.885C367.335 429.325 371.795 426.65 377.215 421.29C380.255 416.815 377.705 414.175 375.295 409.935C376.56 407.9 377.88 405.9 379.26 403.94C383.415 398.565 387.425 393.09 391.3 387.51Z" fill="white"/>
<path d="M310.295 396.915C311.11 395.2 311.019 395.015 312.706 394.09L317.784 399.91C319.351 403.11 321.285 407.76 322.883 410.61C325.461 429.71 340.655 441.145 360.045 435.97L360.31 435.96C371.005 438.17 378.375 438.13 386.235 429.465C392.145 422.945 393.755 419.015 395.53 410.515C396.885 407.465 398.615 403.055 400.525 400.49L402.92 399.505L403.325 399.83C402.965 400.88 402.735 400.975 402.89 402.05L402.535 402.7C399.655 408.015 398.105 413.93 395.85 418.79C392.56 425.88 380.88 439.145 374.165 442.94C373.72 443.15 373.27 443.35 372.815 443.54C362.92 447.725 354.82 447.155 345.152 443.2C338.889 439.77 326.289 427.235 323.247 420.585C318.345 409.865 319.43 405.595 310.295 396.915Z" fill="#DA4525"/>
<path d="M345.152 443.2C348.635 441.88 367.265 440.27 371.56 441.395C372.025 441.515 373.65 442.595 374.165 442.94C373.72 443.15 373.27 443.35 372.815 443.54C362.92 447.725 354.82 447.155 345.152 443.2Z" fill="#F08223"/>
<path d="M493.63 279.473C496.115 273.944 507.95 265.255 511.51 259.438C512.315 258.123 515.515 254.523 516.71 253.414C523.095 267.832 529.665 282.164 536.43 296.405C539.525 302.994 545.005 313.765 547.345 320.385C531.46 338.03 505.54 355.425 481.965 358.905C493.275 353.14 504.665 347.535 516.13 342.095C508.71 332.79 502.46 323.37 496.09 313.35C502.59 312.415 508.96 310.875 515.345 309.365C508.2 299.179 500.235 290.169 493.63 279.473Z" fill="#EC6D25"/>
</g>
<defs>
<clipPath id="clip0_2002_138">
<rect width="718" height="480" fill="white"/>
</clipPath>
</defs>
</svg>
