<svg width="1024" height="1024" viewBox="0 0 1024 1024" fill="none" xmlns="http://www.w3.org/2000/svg">
<g clip-path="url(#clip0_1_7)">
<path d="M642.66 275.875C646.285 273.484 649.53 271.577 653.305 269.414C663.04 308.476 665.637 346.107 650.568 384.565C644.626 399.73 637.31 412.278 631.161 426.543C639.957 442.735 648.1 459.021 658.812 474.125C660.616 476.668 670.451 489.204 671.06 491.095C669.73 491.435 668.803 491.747 667.418 491.781C661.593 492.455 655.768 493.079 649.937 493.659C657.393 505.997 664 516.185 672.071 528.161L673.171 529.599C672.836 529.743 672.517 529.961 672.154 530.005C668.373 533.299 642.582 545.292 635.936 548.808C609.938 562.579 591.429 573.641 568.866 592.149C567.939 593.074 561.354 599.951 561.025 600.118C560.852 598.92 561.109 598.814 561.511 597.644L561.058 597.282L558.383 598.379C556.25 601.238 554.317 606.154 552.804 609.553C550.972 602.754 551.966 589.318 548.079 583.912C543.751 590.132 539.271 596.234 534.63 602.225C533.089 604.409 531.614 606.639 530.201 608.907C528.649 607.525 527.247 606.455 525.594 605.184C519.735 604.783 511.347 603.941 505.784 605.006C502.131 605.162 496.813 605.29 494.181 608.071C492.605 606.455 492.323 605.886 491.123 603.93C485.941 597.348 480.846 590.7 475.84 583.979C472.89 589.998 472.184 602.665 471.658 609.659C469.873 606.482 467.712 601.3 465.962 597.733L460.289 591.246C458.405 592.277 458.507 592.483 457.597 594.395C435.301 575.085 415.656 563.17 389.19 549.427C378.003 543.62 362.062 536.637 351.646 530.602L351.011 530.228L350.699 529.298C359.039 517.522 367.098 505.546 374.872 493.386C368.514 493.129 362.394 492.7 356.11 491.692C354.096 491.301 354.033 491.669 353.18 490.443C370.072 468.675 377.164 456.894 390.122 431.996L393.204 426.865C387.21 413.081 379.712 400.66 373.847 386.055C358.63 348.158 360.538 308.35 370.861 269.622L376.217 272.714C404.723 289.034 437.337 311.681 459.389 336.462C465.92 343.801 470.852 352.878 476.695 360.445C500.919 360.091 523.835 360.586 547.772 360.517C553.161 351.602 562.79 337.705 570.167 330.225C586.152 314.015 622.627 285.334 642.66 275.875Z" fill="#F08223"/>
<path d="M390.122 431.996C392.298 430.884 393.79 429.99 396.235 431.078C413.102 438.581 429.309 447.517 446.267 454.885C451.166 457.013 458.206 459.632 462.157 463.025L462.328 463.483C466.293 464.707 474.766 467.792 478.595 469.539C480.41 471.138 483.367 475.284 485.256 477.436C494.702 488.196 503.142 501.193 512.492 511.815C520.316 501.634 528.213 491.246 536.367 481.34C538.026 479.325 542.377 473.996 544.181 472.326C543.667 478.209 537.663 495.18 539.176 497.66L539.785 497.159C543.013 496.991 546.627 496.562 549.905 496.289L550.715 496.211C555.524 495.208 563.694 491.385 567.972 493.926L569.749 493.414C577.411 491.145 582.169 491.162 590.083 490.844L590.759 489.73C592.351 488.825 594.764 489.028 596.702 488.998C601.058 489.858 605.604 490.772 609.798 492.271L610.748 492.873C616.154 491.903 645.229 492.043 649.937 493.659C657.393 505.997 664 516.185 672.071 528.161L673.171 529.599C672.836 529.743 672.517 529.961 672.154 530.005C668.373 533.299 642.582 545.292 635.936 548.808C609.938 562.579 591.429 573.641 568.866 592.149C567.939 593.074 561.354 599.951 561.025 600.118C560.852 598.92 561.109 598.814 561.511 597.644L561.058 597.282L558.383 598.379C556.25 601.238 554.317 606.154 552.804 609.553C550.972 602.754 551.966 589.318 548.079 583.912C543.751 590.132 539.271 596.234 534.63 602.225C533.089 604.409 531.614 606.639 530.201 608.907C528.649 607.525 527.247 606.455 525.594 605.184C519.735 604.783 511.347 603.941 505.784 605.006C502.131 605.162 496.813 605.29 494.181 608.071C492.605 606.455 492.323 605.886 491.123 603.93C485.941 597.348 480.846 590.7 475.84 583.979C472.89 589.998 472.184 602.665 471.658 609.659C469.873 606.482 467.712 601.3 465.962 597.733L460.289 591.246C458.405 592.277 458.507 592.483 457.597 594.395C435.301 575.085 415.656 563.17 389.19 549.427C378.003 543.62 362.062 536.637 351.646 530.602L351.011 530.228L350.699 529.298C359.039 517.522 367.098 505.546 374.872 493.386C368.514 493.129 362.394 492.7 356.11 491.692C354.096 491.301 354.033 491.669 353.18 490.443C370.072 468.675 377.164 456.894 390.122 431.996Z" fill="#DA4525"/>
<path d="M596.701 488.998C601.058 489.858 605.604 490.772 609.798 492.271L610.748 492.873C616.154 491.903 645.229 492.043 649.937 493.659C657.393 505.997 664 516.185 672.07 528.161L673.171 529.599C672.836 529.743 672.517 529.961 672.154 530.005C668.373 533.299 642.582 545.292 635.936 548.808C609.938 562.579 591.429 573.641 568.866 592.149C567.939 593.074 561.354 599.951 561.025 600.118C560.852 598.92 561.109 598.814 561.511 597.644L561.058 597.282L558.383 598.379C556.25 601.238 554.317 606.154 552.804 609.553C550.972 602.754 551.966 589.318 548.079 583.912L548.766 582.736C548.542 582.33 548.207 581.733 548.062 581.254C543.728 567.043 539.377 552.191 536.39 537.657C536.183 536.659 536.674 535.573 537.071 534.77L537.937 534.988L537.942 534.347C541.019 533.093 543.214 528.111 546.074 525.274C547.236 523.535 548.347 521.847 549.587 520.169C555.669 509.759 557.076 499.834 567.972 493.926L569.748 493.414C577.411 491.145 582.169 491.162 590.083 490.844L590.759 489.73C592.351 488.825 594.764 489.028 596.701 488.998Z" fill="#F4972E"/>
<path d="M609.474 526.912C628.128 527.286 646.43 529.259 665.173 529.465C666.81 529.688 668.183 529.888 669.848 529.961L672.154 530.005C668.373 533.299 642.582 545.292 635.936 548.808C609.938 562.579 591.429 573.641 568.866 592.149C567.939 593.074 561.354 599.951 561.025 600.118C560.852 598.92 561.109 598.814 561.511 597.644L561.058 597.282L558.383 598.379C556.25 601.238 554.317 606.154 552.804 609.553C550.972 602.754 551.966 589.318 548.079 583.912L548.766 582.736C551.441 577.002 554.172 570.977 557.166 565.427C558.288 561.37 602.555 531.293 609.474 526.912Z" fill="white"/>
<path d="M669.848 529.961L672.154 530.005C668.373 533.299 642.582 545.292 635.936 548.808C609.938 562.579 591.429 573.641 568.866 592.149C567.671 591.553 566.308 591.09 565.046 590.611C573.088 579.85 608.994 541.959 620.27 539.162C631.345 536.409 643.425 534.753 654.718 533.109C659.499 532.413 664.922 532.268 669.513 530.83L669.848 529.961Z" fill="#FACA71"/>
<path d="M548.766 582.736C551.441 577.002 554.172 570.977 557.166 565.427C557.774 570.788 558.082 576.183 558.087 581.583C558.098 584.157 557.724 596.234 558.154 597.9L558.383 598.379C556.25 601.238 554.317 606.154 552.804 609.553C550.972 602.754 551.966 589.318 548.079 583.912L548.766 582.736Z" fill="#FACA71"/>
<path d="M565.046 590.611C566.308 591.09 567.671 591.553 568.866 592.149C567.939 593.074 561.354 599.951 561.025 600.118C560.852 598.92 561.109 598.814 561.511 597.644L561.058 597.282L558.383 598.379L558.154 597.9L565.046 590.611Z" fill="#F08223"/>
<path d="M546.074 525.274C549.978 527.687 577.808 522.995 581.393 524.834L580.315 527.609L580.885 527.782L582.711 525.285C587.201 524.014 617.388 515.755 619.494 516.653C616.573 519.634 612.11 523.886 609.474 526.912C602.555 531.293 558.288 561.37 557.166 565.427C554.172 570.977 551.441 577.002 548.766 582.736C548.542 582.329 548.207 581.733 548.062 581.254C543.728 567.043 539.377 552.191 536.39 537.657C536.183 536.659 536.674 535.573 537.071 534.77L537.937 534.988L537.942 534.347C541.019 533.093 543.214 528.111 546.074 525.274Z" fill="#F08223"/>
<path d="M609.798 492.271L610.748 492.873C616.154 491.903 645.229 492.043 649.937 493.659C657.393 505.997 664 516.185 672.07 528.161L673.171 529.599C672.836 529.743 672.517 529.961 672.154 530.005L669.848 529.961C668.183 529.888 666.809 529.688 665.173 529.465C662.894 526.372 627.659 516.263 621.867 514.479C616.349 508.31 611.53 501.606 606.609 494.957L609.798 492.271Z" fill="#F69723"/>
<path d="M609.798 492.271L610.748 492.873C618.315 497.136 669.004 527.927 672.07 528.161L673.171 529.599C672.836 529.743 672.517 529.961 672.154 530.005L669.848 529.961C668.183 529.888 666.809 529.688 665.173 529.465C662.894 526.372 627.659 516.263 621.867 514.479C616.349 508.31 611.53 501.606 606.609 494.957L609.798 492.271Z" fill="#EC6D25"/>
<path d="M606.609 494.957C611.53 501.606 616.349 508.31 621.867 514.479C627.659 516.263 662.894 526.372 665.173 529.465C646.43 529.259 628.128 527.286 609.474 526.912C612.11 523.886 616.573 519.634 619.494 516.653L620.354 516.196L620.46 515.488C617.036 514.841 587.76 523.05 581.957 524.566C586.945 517.461 599.304 504.108 602.566 498.368C603.928 497.248 605.28 496.111 606.609 494.957Z" fill="#F69723"/>
<path d="M567.972 493.926L569.748 493.414C577.411 491.145 582.169 491.162 590.083 490.844C586.219 499.822 585.012 503.54 577.484 510.255C567.727 516.441 560.589 514.501 551.056 519.656C550.123 520.164 550.536 520.024 549.587 520.169C555.669 509.759 557.076 499.834 567.972 493.926Z" fill="white"/>
<path d="M596.702 488.998C601.058 489.858 605.604 490.772 609.798 492.271L606.609 494.957C605.28 496.111 603.928 497.248 602.566 498.368C596.338 501.021 581.522 511.804 577.484 510.255C585.012 503.54 586.219 499.822 590.083 490.844L590.759 489.73C592.351 488.825 594.764 489.028 596.702 488.998Z" fill="#DA4525"/>
<path d="M462.328 463.483C466.293 464.707 474.766 467.792 478.595 469.539C480.41 471.138 483.367 475.284 485.256 477.436C494.702 488.196 503.142 501.193 512.491 511.815C520.316 501.634 528.213 491.246 536.367 481.34C538.026 479.325 542.377 473.996 544.18 472.326C543.667 478.209 537.663 495.18 539.176 497.66L539.785 497.159C543.013 496.991 546.627 496.562 549.905 496.289L550.715 496.211C555.524 495.208 563.694 491.385 567.972 493.926C557.076 499.834 555.669 509.759 549.587 520.169C548.347 521.847 547.235 523.535 546.074 525.274C543.214 528.111 541.019 533.093 537.942 534.347L537.936 534.988L537.071 534.77C536.674 535.573 536.183 536.659 536.389 537.657C539.377 552.191 543.728 567.043 548.062 581.254C548.207 581.733 548.542 582.33 548.766 582.736L548.079 583.912C543.75 590.132 539.271 596.234 534.63 602.225C533.089 604.409 531.614 606.639 530.201 608.907C528.649 607.525 527.247 606.455 525.594 605.184C519.735 604.783 511.347 603.941 505.784 605.006C502.131 605.162 496.813 605.29 494.181 608.071C492.605 606.455 492.322 605.886 491.123 603.93C493.17 600.23 492.287 575.597 492.77 569.735C494.962 543.146 495.383 515.722 481.815 491.736C476.29 481.971 468.542 473.265 462.602 463.919L462.328 463.483Z" fill="#F4972E"/>
<path d="M550.715 496.211C555.524 495.208 563.694 491.385 567.972 493.926C557.076 499.834 555.669 509.759 549.587 520.169C548.347 521.847 547.235 523.535 546.074 525.274C543.214 528.111 541.019 533.093 537.942 534.347L537.936 534.988L537.071 534.77C536.674 535.573 536.183 536.659 536.39 537.657C539.377 552.191 543.728 567.043 548.062 581.254C548.207 581.733 548.542 582.33 548.766 582.736L548.079 583.912C543.75 590.132 539.271 596.234 534.63 602.225C533.044 600.742 532.536 600.118 532.419 597.744C531.436 577.882 530.453 556.878 530.218 537.1C530.151 531.683 536.546 501.355 539.176 497.66L539.785 497.159C543.013 496.991 546.627 496.562 549.905 496.289L550.715 496.211Z" fill="#F69723"/>
<path d="M550.715 496.211C555.524 495.208 563.694 491.385 567.972 493.926C557.076 499.834 555.669 509.759 549.587 520.169C548.347 521.847 547.236 523.535 546.074 525.274C543.214 528.111 541.019 533.093 537.942 534.347L537.937 534.988L537.071 534.77C538.199 527.681 546.906 503.528 549.905 496.289L550.715 496.211Z" fill="#DA4525"/>
<path d="M390.122 431.996C392.298 430.884 393.79 429.99 396.235 431.078C413.102 438.581 429.309 447.517 446.267 454.885C451.166 457.013 458.206 459.632 462.157 463.025L462.328 463.483L462.602 463.919C468.542 473.265 476.29 481.971 481.815 491.736C495.383 515.722 494.963 543.146 492.77 569.735C492.287 575.597 493.17 600.23 491.123 603.93C485.941 597.348 480.846 590.7 475.84 583.979L475.403 582.892C473.658 580.234 467.282 566.931 466.627 563.833C470.448 557.848 478.255 535.918 480.68 528.584C478.062 525.274 476.582 523.296 474.367 519.729C469.569 511.86 465.421 498.485 458.443 494.957C461.853 493.074 467.975 495.52 472.444 496.462C456.411 476.158 432.981 473.901 408.732 471.481C400.851 470.694 386.76 478.587 378.823 481.46C373.169 483.507 360.184 488.14 356.11 491.692C354.096 491.301 354.033 491.669 353.18 490.443C370.072 468.675 377.164 456.894 390.122 431.996Z" fill="#E75F21"/>
<path d="M480.68 528.584C482.516 530.891 483.885 534.168 485.924 536.158L487.184 535.5C487.513 536.732 487.828 538.42 487.516 539.635C485.375 547.967 478.725 576.818 475.403 582.892C473.658 580.234 467.282 566.931 466.627 563.833C470.448 557.848 478.255 535.918 480.68 528.584Z" fill="#DA4525"/>
<path d="M458.443 494.957C461.853 493.074 467.975 495.52 472.444 496.462C477.086 499.098 485.247 529.052 487.184 535.5L485.924 536.158C483.885 534.168 482.516 530.891 480.68 528.584C478.062 525.274 476.582 523.296 474.367 519.729C469.569 511.86 465.421 498.485 458.443 494.957Z" fill="#DA4525"/>
<path d="M410.481 526.857C411.344 526.868 413.448 526.963 414.078 527.369C428.552 536.665 453.973 553.127 466.312 563.722L466.627 563.833C467.282 566.932 473.658 580.234 475.403 582.892L475.84 583.979C472.89 589.998 472.184 602.665 471.658 609.659C469.873 606.482 467.712 601.3 465.962 597.733L460.289 591.246C458.405 592.277 458.507 592.483 457.597 594.395C435.301 575.085 415.656 563.17 389.19 549.427C378.003 543.62 362.062 536.637 351.646 530.602L351.011 530.228C353.183 529.749 355.71 529.888 357.966 529.894C375.479 529.025 392.984 528.01 410.481 526.857Z" fill="white"/>
<path d="M351.011 530.228C353.183 529.749 355.71 529.888 357.966 529.894L355.561 530.73C356.585 531.594 355.896 531.248 357.298 531.41C373.63 533.271 389.885 537.172 406.229 539.134C421.432 551.439 435.921 564.112 449.136 578.54C452.006 581.677 458.008 587.863 460.289 591.246C458.405 592.277 458.507 592.483 457.597 594.395C435.301 575.085 415.656 563.17 389.19 549.427C378.003 543.62 362.062 536.637 351.646 530.602L351.011 530.228Z" fill="#F08223"/>
<path d="M466.312 563.722L466.627 563.833C467.282 566.931 473.658 580.234 475.403 582.892L475.84 583.979C472.89 589.998 472.184 602.665 471.658 609.659C469.873 606.482 467.712 601.3 465.962 597.733C466.169 595.766 465.85 587.39 465.841 584.793C465.848 577.765 466.005 570.743 466.312 563.722Z" fill="#F08223"/>
<path d="M410.481 526.857L409.14 526.299L410.115 525.508C409.38 521.289 403.108 518.731 400.5 515.259C403.574 514.329 415.131 498.769 418.258 495.13C427.62 499.666 435.018 505.646 444.004 510.595C445.041 511.163 445.673 510.606 446.559 510.149C455.529 515.415 462.974 514.808 472.025 518.86C472.956 519.278 473.364 519.584 474.367 519.729C476.582 523.296 478.062 525.274 480.68 528.584C478.255 535.918 470.448 557.848 466.627 563.833L466.312 563.722C453.973 553.127 428.552 536.665 414.078 527.369C413.448 526.963 411.344 526.868 410.481 526.857Z" fill="#E85922"/>
<path d="M432.448 490.36C443.288 490.884 448.196 491.129 458.443 494.957C465.421 498.485 469.569 511.86 474.367 519.729C473.364 519.584 472.956 519.278 472.025 518.86C462.974 514.808 455.529 515.415 446.559 510.149C439.486 503.501 437.534 498.713 432.448 490.36Z" fill="white"/>
<path d="M642.66 275.875C646.285 273.484 649.53 271.577 653.305 269.414C663.04 308.476 665.637 346.107 650.568 384.564C644.626 399.73 637.31 412.278 631.161 426.543C639.957 442.735 648.1 459.021 658.812 474.125C660.616 476.668 670.451 489.204 671.06 491.095C669.73 491.435 668.803 491.747 667.418 491.781C661.593 492.455 655.768 493.079 649.937 493.659C645.229 492.043 616.154 491.903 610.748 492.873L609.798 492.271C605.604 490.772 601.058 489.858 596.702 488.998C594.764 489.028 592.351 488.825 590.759 489.73L590.083 490.844C582.169 491.162 577.411 491.145 569.748 493.414L567.972 493.926C563.694 491.385 555.524 495.208 550.715 496.211L549.905 496.289C546.627 496.562 543.013 496.991 539.785 497.159L539.176 497.66C537.663 495.18 543.667 478.209 544.181 472.326L545.147 469.869C547.587 460.531 549.654 447.817 551.419 438.107C553.96 423.846 556.702 409.62 559.64 395.434C560.997 388.783 562.365 381.084 564.231 374.62C567.369 376.79 570.96 379.723 574.027 382.102C579.466 367.377 588.078 354.02 596.785 341.054C590.519 343.399 573.976 379.617 572.904 380.042C570.346 378.178 567.771 376.336 565.18 374.517C568.983 363.548 576.735 350.8 583.465 341.214C586.079 337.5 591.29 332.575 592.893 328.614C581.801 338.228 569.296 361.53 564.007 374.986C561.025 372.429 549.827 363.117 547.772 360.517C553.161 351.602 562.79 337.705 570.167 330.225C586.152 314.015 622.627 285.334 642.66 275.875Z" fill="#F7A32A"/>
<path d="M596.785 341.054C599.863 338.149 605.917 329.531 609.687 325.543C621.694 312.853 634.098 299.983 647.731 289.014L648.58 289.215L649.658 289.484C651.065 293.404 651.898 303.326 652.25 307.633C654.551 335.927 648.48 357.827 636.634 383.071C631.021 395.04 624.665 404.93 618.851 416.21L619.097 416.906L618.5 417.039C604.303 406.307 588.14 391.911 574.027 382.102C579.466 367.377 588.078 354.02 596.785 341.054Z" fill="#E86123"/>
<path d="M596.785 341.054C599.863 338.149 605.917 329.531 609.687 325.543C621.694 312.853 634.098 299.983 647.731 289.014L648.58 289.215C633.462 310.253 612.797 338.506 600.762 360.93C609.072 358.823 617.343 356.83 625.481 354.113C618.036 362.466 608.67 373.297 601.935 382.204C607.514 383.278 614.936 385.08 620.259 385.921C614.49 390.073 609.128 393.918 603.593 398.391C608.486 403.919 614.333 410.407 618.851 416.21L619.097 416.906L618.5 417.039C604.303 406.307 588.14 391.911 574.027 382.102C579.466 367.377 588.078 354.02 596.785 341.054Z" fill="white"/>
<path d="M642.66 275.875C643.973 275.583 645.296 275.307 646.62 275.048C646.257 276.01 646.363 276.336 645.453 276.865C638.834 280.705 596.707 322.336 592.893 328.614C581.801 338.228 569.296 361.53 564.007 374.986C561.025 372.429 549.827 363.117 547.772 360.517C553.161 351.602 562.79 337.705 570.167 330.225C586.152 314.015 622.627 285.334 642.66 275.875Z" fill="#EC6D25"/>
<path d="M617.154 471.644C624.95 470.068 651.25 484.649 659.728 487.235C661.604 487.809 666.1 490.243 667.418 491.781C661.593 492.455 655.768 493.079 649.937 493.659C645.229 492.043 616.154 491.903 610.748 492.873L609.798 492.271C605.604 490.772 601.058 489.858 596.702 488.998C599.958 484.091 616.104 476.698 618.421 472.26L617.154 471.644Z" fill="#F08223"/>
<path d="M550.715 496.211C551.162 495.375 551.296 495.002 551.927 494.305C568.872 475.574 594.311 473.868 617.154 471.644L618.421 472.26C616.104 476.698 599.958 484.091 596.701 488.998C594.764 489.028 592.351 488.825 590.759 489.73L590.083 490.845C582.169 491.162 577.411 491.145 569.748 493.414L567.972 493.926C563.694 491.385 555.524 495.208 550.715 496.211Z" fill="#EC6D25"/>
<path d="M545.147 469.869L565.018 462.578C557.668 469.242 543.052 487.806 539.785 497.159L539.176 497.66C537.663 495.18 543.667 478.209 544.181 472.326L545.147 469.869Z" fill="#FACA71"/>
<path d="M370.861 269.622L376.217 272.714C379.333 278.362 390.403 287.099 395.291 292.006C422.354 319.175 445.533 337.951 460.526 374.387C458.794 375.697 451.677 381.572 450.385 381.649C446.375 385.214 406.371 416.805 404.113 417.425C400.796 420.095 395.915 424.883 393.203 426.865C387.21 413.081 379.712 400.66 373.847 386.055C358.63 348.158 360.538 308.35 370.861 269.622Z" fill="#DA4525"/>
<path d="M370.861 269.622L376.217 272.714C379.333 278.362 390.403 287.099 395.291 292.006C422.354 319.175 445.533 337.951 460.526 374.387C458.794 375.697 451.677 381.572 450.385 381.649C437.388 348.812 411.732 320.727 385.794 297.218C382.936 294.628 379.643 291.324 376.453 289.319L375.37 289.332C371.831 293.751 371.616 327.628 372.959 338.921C375.805 362.85 392.317 394.548 404.053 416.25C404.175 416.336 404.297 416.423 404.42 416.509L404.113 417.425C400.796 420.095 395.915 424.883 393.203 426.865C387.21 413.081 379.712 400.66 373.847 386.055C358.63 348.158 360.538 308.35 370.861 269.622Z" fill="#E75F21"/>
<path d="M376.453 289.319C379.643 291.324 382.936 294.628 385.794 297.218C411.732 320.727 437.388 348.812 450.385 381.649C446.375 385.214 406.371 416.805 404.113 417.425L404.42 416.509C409.749 410.961 415.505 404.132 420.654 398.303C415.388 394.167 410.153 389.979 404.722 386.064C411.189 384.525 416.262 383.395 422.85 382.334C415.474 373.132 407.127 363.694 399.468 354.608C406.494 357.016 416.306 359.402 423.839 361.672C407.627 334.653 393.715 315.034 376.453 289.319Z" fill="white"/>
<path d="M460.526 374.387C461.559 384.664 479.05 468.118 478.595 469.539C474.766 467.792 466.293 464.707 462.328 463.483L462.157 463.025C458.206 459.632 451.166 457.013 446.267 454.885C429.309 447.517 413.102 438.581 396.235 431.078C393.79 429.99 392.298 430.884 390.122 431.996L393.203 426.865C395.915 424.883 400.796 420.095 404.113 417.425C406.371 416.805 446.375 385.214 450.385 381.649C451.677 381.572 458.794 375.697 460.526 374.387Z" fill="#EC6D25"/>
<path d="M805.277 430.896C836.14 420.799 881.914 425.77 912.112 437.823C903.729 441.235 897.144 443.853 889.23 448.398C856.905 466.968 840.563 496.796 823.624 528.25C820.586 533.884 810.661 552.737 807.266 557.162C805.283 561.799 801.412 567.489 798.514 571.774C785.44 591.129 770.868 605.708 751.254 618.492C734.94 628.579 716.973 635.718 698.18 639.58C640.577 651.857 568.592 639.012 521.584 680.675L515.373 686.911C518.339 677.069 523.416 664.82 527.805 655.58C541.31 650.447 553.742 636.576 560.768 623.948C563.046 619.858 565.213 608.923 568.168 605.635C582.281 589.903 603.219 576.088 622.666 567.784C628.245 565.466 639.063 564.24 644.983 562.88C659.795 559.469 673.092 555.903 686.675 548.881C730.679 525.659 748.21 495.476 762.882 450.973C774.728 443.357 791.879 434.855 805.277 430.896Z" fill="#E75F21"/>
<path d="M805.277 430.896C836.14 420.799 881.914 425.77 912.112 437.823C903.729 441.235 897.144 443.853 889.23 448.398C856.905 466.968 840.563 496.796 823.624 528.25C820.586 533.884 810.661 552.737 807.266 557.162C805.283 561.799 801.413 567.489 798.514 571.774C785.44 591.129 770.868 605.708 751.254 618.492C749.294 613.972 720.85 581.343 716.421 577.024C720.576 575.074 723.737 571.83 727.077 568.737C729.221 563.66 735.231 554.805 738.347 549.75C743.066 542.004 747.534 534.101 751.734 526.06C758.492 513.236 764.926 499.939 770.846 486.712C773.46 480.859 776.029 475.175 779.38 469.684L779.927 468.808L779.609 467.703L777.498 466.897C775.649 467.716 773.007 468.63 771.058 469.373C779.732 458.413 789.455 448.073 799.078 437.934C801.256 435.641 803.512 433.523 805.277 430.896Z" fill="#F69723"/>
<path d="M805.277 430.896C836.14 420.799 881.914 425.77 912.112 437.823C903.729 441.235 897.144 443.853 889.23 448.398C856.905 466.968 840.563 496.796 823.624 528.25C820.586 533.884 810.661 552.737 807.266 557.162C807.517 553.601 809.868 544.501 810.762 540.666L819.759 502.943C807.612 509.135 794.286 515.165 781.871 521.016C789.796 499.783 799.078 478.497 807.489 457.373C804.937 458.04 802.619 458.906 800.134 459.78C794.052 461.517 782.496 465.823 777.498 466.897C775.649 467.716 773.007 468.63 771.058 469.373C779.732 458.413 789.455 448.073 799.078 437.934C801.256 435.641 803.512 433.523 805.277 430.896Z" fill="#FACA71"/>
<path d="M800.134 459.78C802.267 460.014 802.446 460.038 804.406 459.202L805.506 459.607C805.266 460.181 803.937 463.567 803.836 463.752C802.021 467.221 799.29 471.209 797.347 474.602C783.792 498.195 749.511 553.902 727.077 568.737C729.221 563.66 735.231 554.805 738.347 549.75C743.066 542.004 747.534 534.101 751.734 526.06C758.492 513.236 764.926 499.939 770.846 486.712C773.46 480.859 776.029 475.175 779.38 469.684L779.927 468.807L779.609 467.703L777.498 466.897C782.496 465.823 794.052 461.517 800.134 459.78Z" fill="#F08223"/>
<path d="M521.584 680.675C523.365 674.5 532.039 667.3 536.484 662.524C560.734 636.481 593.965 621.903 627.452 611.738C655.455 603.239 683.603 597.042 709.222 582.263C711.807 580.775 713.947 578.707 716.421 577.024C720.85 581.343 749.294 613.972 751.254 618.492C734.94 628.579 716.974 635.718 698.18 639.58C640.577 651.857 568.592 639.012 521.584 680.675Z" fill="#EC6D25"/>
<path d="M111.895 437.957C138.945 427.703 171.493 422.848 200.096 426.855C205.631 427.631 213.575 428.941 218.811 430.85C230.912 433.607 251.439 443.519 261.69 451.142C279.97 509.82 314.648 550.157 378.928 562.958C401.392 567.433 416.373 572.421 434.664 586.927C451.804 599.867 456.832 602.336 462.946 622.978C466.034 633.4 485.381 650.704 496.071 655.53C500.741 664.82 506.013 676.64 509.174 686.582C506.125 683.651 502.991 680.519 499.713 677.877C492.632 672.588 485.24 667.484 477.157 663.839C423.332 639.875 361.932 652.398 306.535 634.314C270.534 622.56 233.771 591.614 216.696 557.218C214.999 554.905 213.318 551.74 211.921 549.165C191.955 512.384 173.624 470.377 135.663 448.478C127.824 443.956 120.299 441.116 111.895 437.957Z" fill="#E25424"/>
<path d="M218.811 430.85C230.912 433.607 251.439 443.519 261.691 451.142C279.97 509.82 314.648 550.157 378.928 562.958C401.392 567.433 416.373 572.421 434.664 586.927C451.804 599.867 456.832 602.336 462.946 622.978C466.034 633.4 485.382 650.704 496.071 655.53C500.741 664.82 506.013 676.64 509.174 686.582C506.125 683.651 502.991 680.519 499.713 677.877C497.867 671.379 488.44 663.226 483.529 658.417C446.643 621.641 394.577 611.654 346.786 596.357C290.976 578.501 263.709 536.632 235.253 489.007C231.469 482.673 223.434 464.153 218.425 460.157C218.149 459.848 217.836 458.991 217.646 458.556C220.604 457.875 247.453 467.026 252.413 468.684C246.869 461.715 241.037 454.98 234.93 448.495C231.625 445.016 220.829 434.336 218.811 430.85Z" fill="#DA4525"/>
<path d="M111.895 437.957C138.945 427.703 171.493 422.848 200.096 426.855C205.631 427.631 213.575 428.941 218.811 430.85C220.829 434.336 231.625 445.016 234.93 448.495C241.037 454.98 246.869 461.715 252.413 468.684C247.453 467.026 220.604 457.875 217.646 458.556C217.836 458.991 218.149 459.848 218.425 460.157C221.05 469.175 225.035 477.671 228.677 486.267C233.685 498.056 238.612 509.876 243.456 521.735C236.596 517.165 212.608 506.521 204.188 503.317C206.284 511.62 217.157 552.007 216.696 557.218C214.999 554.905 213.318 551.74 211.921 549.165C191.955 512.384 173.624 470.377 135.663 448.478C127.824 443.956 120.299 441.116 111.895 437.957Z" fill="#EC6D25"/>
<path d="M151.82 312.957C155.673 310.674 159.624 308.561 163.662 306.624C190.966 293.514 224.742 286.053 254.851 288.565C260.603 289.045 270.223 290.213 275.691 292.111C311.421 301.349 334.599 322.136 353.215 353.391C357.764 361.029 358.047 365.605 360.129 373.994C364.702 392.416 375.422 409.595 383.176 426.682C377.139 438.122 369.574 452.459 362.138 463.101C355.607 473.821 345.486 486.316 337.772 496.557C344.69 498.457 351.738 499.834 358.763 501.305C352.604 511.771 344.244 523.151 337.172 533.16C344.98 537.707 353.99 541.697 362.012 545.91C365.535 547.761 370.072 549.678 373.255 551.918C318.781 539.323 285.165 499.471 270.57 448.062C267.926 438.749 262.315 428.805 259.762 419.135C256.538 413.583 252.699 403.131 250.145 397.097C229.889 349.241 204.815 322.307 151.82 312.957Z" fill="#DA4525"/>
<path d="M275.691 292.111C311.421 301.349 334.599 322.136 353.215 353.391C357.764 361.029 358.047 365.605 360.129 373.994C364.702 392.416 375.422 409.595 383.176 426.682C377.139 438.122 369.574 452.459 362.138 463.101C356.05 456.736 346.685 447.861 341.416 441.142C322.654 417.217 308.145 388.156 293.102 361.618L277.754 334.837C276.959 333.42 270.527 321.854 270.124 321.492L269.526 322.816C268.403 320.737 267.155 317.797 266.138 315.593C281.168 317.287 296.64 320.056 311.577 322.599C304.325 316.539 296.966 310.605 289.505 304.802C285.847 301.933 278.52 296.507 275.442 293.44L275.691 292.111Z" fill="#E75F21"/>
<path d="M151.82 312.957C155.673 310.674 159.624 308.561 163.662 306.624C190.966 293.514 224.742 286.053 254.851 288.565C260.603 289.045 270.223 290.213 275.691 292.111L275.442 293.44C278.52 296.507 285.847 301.933 289.505 304.802C296.966 310.605 304.325 316.539 311.577 322.599C296.64 320.056 281.168 317.287 266.138 315.593C267.155 317.797 268.403 320.737 269.526 322.816C277.108 340.495 285.59 361.825 293.66 378.955C288.586 375.808 280.529 372.518 274.9 370.002L244.941 356.585C247.107 364.708 260.72 414.896 259.762 419.135C256.538 413.583 252.699 403.131 250.145 397.097C229.889 349.241 204.815 322.307 151.82 312.957Z" fill="#ED8337"/>
<path d="M750.31 291.666C779.112 283.867 819.603 290.024 847.153 300.864C856.262 304.448 864.361 308.575 873.056 313.008C837.48 319.648 813.901 331.097 792.868 361.875C786.238 371.707 780.486 382.103 775.688 392.942C772.27 400.648 769.21 408.882 765.44 416.352C762.524 425.664 758.721 435.007 755.448 444.223C747.68 466.113 738.526 491.859 722.38 509.096C719.766 501.717 713.645 489.712 710.188 482.368C702.631 466.495 695.293 450.521 688.161 434.45C686.826 435.687 683.252 439.7 682.352 441.165C678.376 447.649 665.156 457.333 662.381 463.496C656.79 456.928 645.307 434.2 641.068 425.996C648.463 411.539 655.533 397.845 661.252 382.66C665.179 372.228 665.128 362.491 670.741 353.275C690.506 320.8 713.315 301.463 750.31 291.666Z" fill="#F4972E"/>
<path d="M750.31 291.666C749.807 292.912 715.572 320.627 712.461 322.98C727.54 320.159 742.659 317.576 757.816 315.234C756.286 318.947 754.37 323.854 752.449 327.362C749.026 330.784 746.881 333.509 744.474 337.741C729.852 363.503 715.058 389.194 700.632 415.072C698.85 418.272 688.73 432.712 688.161 434.45C686.826 435.687 683.252 439.7 682.352 441.165C678.376 447.649 665.156 457.333 662.381 463.496C656.79 456.928 645.307 434.2 641.068 425.996C648.463 411.539 655.533 397.845 661.252 382.66C665.179 372.228 665.128 362.491 670.741 353.275C690.506 320.8 713.315 301.463 750.31 291.666Z" fill="#F08223"/>
<path d="M750.31 291.666C779.112 283.867 819.603 290.024 847.153 300.864C856.262 304.448 864.361 308.575 873.056 313.008C837.48 319.648 813.901 331.097 792.868 361.876C786.238 371.707 780.486 382.103 775.688 392.942C772.27 400.648 769.21 408.882 765.44 416.352C765.512 412.011 768.204 402.22 769.226 397.34C772.108 383.583 775.532 369.805 778.939 356.161C764.356 363.309 745.948 372.403 731.092 378.503C737.923 361.783 746.004 343.907 752.449 327.362C754.37 323.854 756.286 318.947 757.816 315.234C742.659 317.576 727.54 320.159 712.461 322.98C715.572 320.627 749.807 292.912 750.31 291.666Z" fill="#FACA71"/>
<path d="M420.979 155.099L419.153 153.594L419.193 152.78C422.055 152.146 431.469 152.502 434.673 152.739C462.664 154.809 491.668 163.123 515.334 178.297C518.523 180.341 527.42 186.434 530.062 189.099C551.564 206.519 564.772 230.196 569.285 257.34C571.781 278.324 569.709 297.417 564.024 317.688C562.711 322.375 560.919 326.715 557.836 330.566C552.284 337.396 547.504 344.239 542.862 351.733C531.246 351.259 519.618 351.021 507.99 351.017L480.722 351.525C468.195 330.812 455.791 318.517 437.497 303.362C441.381 298.101 444.874 291.186 447.976 285.353C454.138 269.979 459.053 256.561 459.111 239.713C459.236 203.663 445.048 179.88 420.979 155.099Z" fill="#E75F21"/>
<path d="M420.979 155.099L419.153 153.594L419.193 152.78C422.055 152.146 431.469 152.502 434.673 152.739C462.664 154.809 491.668 163.123 515.334 178.297C518.523 180.341 527.42 186.434 530.062 189.099C530.559 192.759 547.956 223.895 550.922 230.471C540.422 224.815 526.487 216.282 516.016 211.875L516.032 228.657C515.708 238.328 514.24 266.352 512.341 275.888C511.073 275.453 511.67 275.745 510.676 274.58C500.378 264.813 489.755 253.166 479.318 242.928C472.432 252.843 465.642 262.825 458.95 272.872C457.841 274.556 453.317 281.233 452.678 282.749C450.718 284.438 450.451 284.615 447.976 285.353C454.138 269.979 459.053 256.561 459.111 239.713C459.236 203.663 445.048 179.88 420.979 155.099Z" fill="#FACA71"/>
<path d="M420.979 155.099C428.939 154.706 454.159 174.196 460.265 179.599C482.609 199.37 493.753 226.114 503.913 253.392C505.974 258.93 510.006 269.192 510.676 274.58C500.378 264.813 489.755 253.166 479.318 242.928C472.432 252.843 465.642 262.825 458.95 272.872C457.841 274.556 453.317 281.233 452.678 282.749C450.718 284.438 450.451 284.615 447.976 285.353C454.138 269.979 459.053 256.561 459.111 239.713C459.236 203.663 445.048 179.88 420.979 155.099Z" fill="#F4972E"/>
<path d="M530.062 189.099C551.564 206.519 564.772 230.196 569.285 257.34C571.781 278.324 569.709 297.417 564.024 317.688C562.711 322.375 560.919 326.715 557.836 330.566C552.284 337.396 547.504 344.239 542.862 351.733C531.246 351.259 519.618 351.021 507.99 351.017C509.677 344.677 519.193 333.928 518.227 329.268L518.518 328.879C523.053 299.254 525.477 267.529 521.383 237.807C520.417 230.824 519.244 222.185 516.608 215.662C516.585 219.394 516.758 225.195 516.032 228.657L516.016 211.875C526.487 216.282 540.422 224.815 550.922 230.471C547.956 223.895 530.559 192.759 530.062 189.099Z" fill="#F08223"/>
<path d="M518.518 328.879L519.076 329.593C520.277 330.115 520.852 328.537 521.785 327.321C538.048 306.126 552.698 283.353 565.761 260.073C566.733 258.344 567.526 257.932 569.285 257.34C571.781 278.324 569.709 297.417 564.024 317.688C562.711 322.375 560.919 326.715 557.836 330.566C552.284 337.396 547.504 344.239 542.862 351.733C531.246 351.259 519.618 351.021 507.99 351.017C509.677 344.677 519.193 333.928 518.227 329.268L518.518 328.879Z" fill="#EC6D25"/>
<path d="M452.678 282.749C463.214 291.146 476.922 300.027 487.922 308.289C494.816 313.467 511.134 325.703 518.227 329.268C519.193 333.928 509.677 344.677 507.99 351.017L480.722 351.525C468.195 330.812 455.791 318.517 437.497 303.362C441.381 298.101 444.874 291.186 447.976 285.353C450.451 284.615 450.718 284.438 452.678 282.749Z" fill="#DA4525"/>
<path d="M548.079 583.912C551.966 589.318 550.972 602.754 552.804 609.553C554.317 606.154 556.25 601.238 558.383 598.379L561.058 597.282L561.511 597.644C561.109 598.814 560.852 598.92 561.025 600.118L560.628 600.843C557.411 606.767 555.68 613.359 553.161 618.776C549.486 626.679 536.44 641.464 528.939 645.694C528.442 645.928 527.939 646.15 527.431 646.362C516.379 651.027 507.331 650.392 496.532 645.983C489.536 642.16 475.462 628.189 472.064 620.777C466.589 608.829 467.8 604.069 457.597 594.395C458.507 592.483 458.405 592.277 460.289 591.246L465.962 597.733C467.712 601.3 469.873 606.482 471.658 609.659C472.184 602.665 472.89 589.998 475.84 583.979C480.846 590.7 485.941 597.348 491.123 603.93C492.323 605.886 492.605 606.455 494.181 608.071C496.813 605.29 502.131 605.162 505.784 605.006C511.347 603.941 519.735 604.783 525.594 605.184C527.247 606.455 528.649 607.525 530.201 608.907C531.614 606.639 533.089 604.409 534.63 602.225C539.271 596.234 543.75 590.132 548.079 583.912Z" fill="white"/>
<path d="M505.784 605.006C511.347 603.941 519.735 604.783 525.594 605.184C527.247 606.455 528.649 607.525 530.201 608.907C532.893 613.633 535.742 616.575 532.346 621.563C526.292 627.537 521.31 630.519 514.686 635.601C514.033 636.103 513.614 637.072 513.463 637.914L513.167 637.925L511.693 636.164C505.935 633.255 494.341 625.77 491.29 619.512C489.977 616.815 492.94 610.963 494.181 608.071C496.813 605.29 502.131 605.162 505.784 605.006Z" fill="#DA4525"/>
<path d="M494.181 608.071C496.813 605.29 502.131 605.162 505.784 605.006C508.364 605.151 508.649 604.76 510.531 605.942C510.9 608.266 509.839 609.748 508.878 612.245C506.599 613.008 504.689 613.488 502.673 614.786L502.712 615.36C504.538 615.739 504.818 615.706 506.622 615.722C510.509 619.49 511.631 630.992 511.693 636.164C505.935 633.255 494.341 625.77 491.29 619.512C489.977 616.815 492.94 610.963 494.181 608.071Z" fill="#DA4525"/>
<path d="M505.784 605.006C511.347 603.941 519.735 604.783 525.594 605.184C527.247 606.455 528.649 607.525 530.201 608.907C532.893 613.633 535.742 616.575 532.346 621.563C530.196 619.322 528.358 618.804 525.476 617.567C523.243 617.06 520.372 616.737 518.054 616.408C514.379 616.296 510.324 615.956 506.622 615.722C504.818 615.706 504.538 615.739 502.712 615.36L502.673 614.786C504.689 613.488 506.599 613.008 508.878 612.245C509.839 609.748 510.9 608.266 510.531 605.942C508.649 604.76 508.364 605.151 505.784 605.006Z" fill="#E75F21"/>
<path d="M508.878 612.245C511.894 612.211 514.429 612.078 517.423 612.535L518.054 616.408C514.379 616.296 510.324 615.956 506.622 615.722C504.818 615.706 504.538 615.739 502.712 615.36L502.673 614.786C504.689 613.488 506.599 613.008 508.878 612.245Z" fill="#F69723"/>
<path d="M517.423 612.535C521.774 613.404 523.03 613.844 525.477 617.567C523.243 617.06 520.372 616.737 518.054 616.408L517.423 612.535Z" fill="#FACA71"/>
<path d="M548.079 583.912C551.966 589.318 550.972 602.754 552.804 609.553C550.821 619.027 549.023 623.407 542.421 630.675C533.642 640.332 525.409 640.377 513.463 637.914C513.614 637.072 514.033 636.103 514.686 635.601C521.31 630.519 526.292 627.537 532.346 621.563C535.742 616.575 532.893 613.633 530.201 608.907C531.614 606.639 533.089 604.409 534.63 602.225C539.271 596.234 543.75 590.132 548.079 583.912Z" fill="white"/>
<path d="M457.597 594.395C458.507 592.483 458.405 592.277 460.289 591.246L465.962 597.733C467.712 601.3 469.873 606.482 471.658 609.659C474.537 630.948 491.508 643.693 513.167 637.925L513.463 637.914C525.409 640.377 533.642 640.332 542.421 630.675C549.023 623.407 550.821 619.027 552.804 609.553C554.317 606.154 556.25 601.238 558.383 598.379L561.058 597.282L561.511 597.644C561.109 598.814 560.852 598.92 561.025 600.118L560.628 600.843C557.411 606.767 555.68 613.359 553.161 618.776C549.486 626.679 536.44 641.464 528.939 645.694C528.442 645.928 527.939 646.151 527.431 646.362C516.379 651.027 507.331 650.392 496.532 645.983C489.536 642.16 475.462 628.189 472.064 620.777C466.589 608.829 467.8 604.069 457.597 594.395Z" fill="#DA4525"/>
<path d="M496.532 645.983C500.422 644.512 521.232 642.718 526.029 643.972C526.549 644.105 528.364 645.309 528.939 645.694C528.442 645.928 527.939 646.15 527.431 646.362C516.379 651.027 507.331 650.392 496.532 645.983Z" fill="#F08223"/>
<path d="M662.381 463.496C665.156 457.333 678.376 447.649 682.352 441.165C683.252 439.7 686.826 435.687 688.161 434.45C695.293 450.521 702.631 466.495 710.188 482.368C713.645 489.712 719.766 501.717 722.38 509.096C704.636 528.763 675.684 548.151 649.351 552.03C661.984 545.604 674.707 539.357 687.513 533.293C679.225 522.922 672.244 512.423 665.128 501.255C672.389 500.213 679.504 498.496 686.636 496.813C678.655 485.46 669.758 475.418 662.381 463.496Z" fill="#EC6D25"/>
</g>
<path d="M293.26 837C277.009 837 263.39 831.644 252.403 820.933C241.468 810.222 236 796.77 236 780.576C236 764.179 241.468 750.651 252.403 739.991C263.339 729.33 277.034 724 293.488 724C299.462 724 304.753 724.558 309.36 725.675C314.018 726.792 318.245 728.315 322.042 730.244C325.84 732.173 329.105 734.432 331.839 737.021C334.623 739.61 336.016 740.904 336.016 740.904L313.917 766.794C313.917 766.794 313.056 766.032 311.335 764.509C309.664 762.987 307.968 761.768 306.246 760.854C304.525 759.89 302.627 759.154 300.551 758.646C298.526 758.088 296.323 757.809 293.944 757.809C287.514 757.809 282.122 759.915 277.768 764.129C273.414 768.342 271.237 774.256 271.237 781.871C271.237 788.622 273.389 794.155 277.692 798.47C281.996 802.735 287.59 804.867 294.475 804.867C300.601 804.867 305.259 803.674 308.449 801.288C311.638 798.902 313.638 795.907 314.448 792.303V794.358H291.514V770.068H348.166V781.338C348.166 799.054 342.977 812.76 332.598 822.456C322.22 832.152 309.107 837 293.26 837Z" fill="url(#paint0_linear_1_7)"/>
<path d="M394.973 837C382.417 837 372.013 833.015 363.761 825.045C355.559 817.024 351.458 806.999 351.458 794.968C351.458 782.886 355.559 772.86 363.761 764.89C372.013 756.869 382.417 752.859 394.973 752.859C407.478 752.859 417.857 756.869 426.109 764.89C434.362 772.86 438.488 782.886 438.488 794.968C438.488 806.999 434.362 817.024 426.109 825.045C417.907 833.015 407.529 837 394.973 837ZM394.973 807.456C398.416 807.456 401.327 806.288 403.706 803.953C406.136 801.567 407.351 798.572 407.351 794.968C407.351 791.313 406.136 788.292 403.706 785.906C401.327 783.52 398.416 782.327 394.973 782.327C391.48 782.327 388.543 783.52 386.164 785.906C383.784 788.292 382.594 791.287 382.594 794.892C382.594 798.546 383.784 801.567 386.164 803.953C388.543 806.288 391.48 807.456 394.973 807.456Z" fill="url(#paint1_linear_1_7)"/>
<path d="M501.022 837C484.011 837 469.962 831.721 458.875 821.162C447.838 810.552 442.319 797.024 442.319 780.576C442.319 764.027 447.888 750.473 459.027 739.914C470.165 729.305 484.138 724 500.947 724C506.06 724 510.92 724.533 515.527 725.599C520.135 726.614 524.413 728.163 528.362 730.244C532.311 732.274 535.829 734.61 538.918 737.249C542.057 739.889 543.626 741.209 543.626 741.209L520.16 768.85C520.16 768.85 519.476 768.139 518.109 766.718C516.793 765.246 515.3 764.002 513.629 762.987C511.958 761.92 510.161 761.108 508.237 760.55C506.364 759.941 504.237 759.636 501.858 759.636C495.985 759.636 491.049 761.565 487.049 765.423C483.05 769.281 481.05 774.332 481.05 780.576C481.05 786.668 483.024 791.668 486.973 795.577C490.922 799.435 495.884 801.364 501.858 801.364C504.237 801.364 506.414 801.059 508.389 800.45C510.414 799.841 512.262 799.003 513.933 797.937C515.603 796.821 517.097 795.551 518.413 794.13C519.73 792.658 520.388 791.922 520.388 791.922L545.069 816.821C545.069 816.821 543.601 818.37 540.664 821.466C537.778 824.563 534.31 827.304 530.26 829.69C526.21 832.076 521.729 833.878 516.818 835.096C511.908 836.365 506.642 837 501.022 837Z" fill="url(#paint2_linear_1_7)"/>
<path d="M551.455 835.02V725.98H584.718V835.02H551.455Z" fill="url(#paint3_linear_1_7)"/>
<path d="M622.606 837C614.202 837 607.19 834.766 601.57 830.299C596.001 825.781 593.216 819.842 593.216 812.481C593.216 804.41 596.456 798.013 602.937 793.292C609.468 788.571 617.999 786.211 628.529 786.211C632.174 786.211 635.389 786.49 638.174 787.049C641.009 787.556 643.87 788.343 646.755 789.409V786.211C646.755 783.216 645.667 780.906 643.49 779.282C641.313 777.657 638.503 776.845 635.06 776.845C633.086 776.845 631.137 777.099 629.213 777.606C627.289 778.114 625.365 778.901 623.441 779.967C621.568 781.033 619.669 782.327 617.745 783.85C615.822 785.373 614.86 786.135 614.86 786.135L595.57 769.002C595.57 769.002 597.292 767.708 600.734 765.119C604.177 762.479 607.772 760.245 611.518 758.418C615.315 756.59 619.517 755.22 624.125 754.306C628.732 753.341 633.719 752.859 639.085 752.859C651.489 752.859 661.362 755.6 668.703 761.083C676.094 766.515 679.79 774.662 679.79 785.526V835.02H648.426V820.248L653.135 825.578H648.35C645.515 829.284 642.072 832.127 638.022 834.106C633.972 836.035 628.833 837 622.606 837ZM634.529 816.441C638.478 816.441 641.49 815.324 643.566 813.09C645.692 810.806 646.755 807.887 646.755 804.334V803.724C645.591 803.064 644.072 802.531 642.199 802.125C640.376 801.668 638.174 801.44 635.592 801.44C632.605 801.44 630.023 802.1 627.846 803.42C625.669 804.74 624.58 806.643 624.58 809.131C624.58 811.517 625.542 813.344 627.466 814.613C629.441 815.832 631.795 816.441 634.529 816.441Z" fill="url(#paint4_linear_1_7)"/>
<path d="M707.681 835.173L679.734 754.763H713.073L722.338 790.627L723.857 797.252H724.009L725.527 790.704L734.413 754.763H761.752L770.789 790.704L772.536 797.1H772.688L774.282 790.704L782.636 754.763H814L785.142 835.173H757.879L748.234 803.42L746.639 797.633H746.488L744.893 803.42L735.4 835.173H707.681Z" fill="url(#paint5_linear_1_7)"/>
<defs>
<linearGradient id="paint0_linear_1_7" x1="236" y1="780.5" x2="814" y2="780.5" gradientUnits="userSpaceOnUse">
<stop stop-color="#DB4024"/>
<stop offset="1" stop-color="#F28B1B"/>
</linearGradient>
<linearGradient id="paint1_linear_1_7" x1="236" y1="780.5" x2="814" y2="780.5" gradientUnits="userSpaceOnUse">
<stop stop-color="#DB4024"/>
<stop offset="1" stop-color="#F28B1B"/>
</linearGradient>
<linearGradient id="paint2_linear_1_7" x1="236" y1="780.5" x2="814" y2="780.5" gradientUnits="userSpaceOnUse">
<stop stop-color="#DB4024"/>
<stop offset="1" stop-color="#F28B1B"/>
</linearGradient>
<linearGradient id="paint3_linear_1_7" x1="236" y1="780.5" x2="814" y2="780.5" gradientUnits="userSpaceOnUse">
<stop stop-color="#DB4024"/>
<stop offset="1" stop-color="#F28B1B"/>
</linearGradient>
<linearGradient id="paint4_linear_1_7" x1="236" y1="780.5" x2="814" y2="780.5" gradientUnits="userSpaceOnUse">
<stop stop-color="#DB4024"/>
<stop offset="1" stop-color="#F28B1B"/>
</linearGradient>
<linearGradient id="paint5_linear_1_7" x1="236" y1="780.5" x2="814" y2="780.5" gradientUnits="userSpaceOnUse">
<stop stop-color="#DB4024"/>
<stop offset="1" stop-color="#F28B1B"/>
</linearGradient>
<clipPath id="clip0_1_7">
<rect width="802" height="535" fill="white" transform="translate(111 152)"/>
</clipPath>
</defs>
</svg>
